<mxfile host="app.diagrams.net" modified="2022-04-20T16:38:24.248Z" agent="5.0 (Windows NT 10.0; Win64; x64) AppleWebKit/537.36 (KHTML, like Gecko) Chrome/99.0.4844.51 Safari/537.36" etag="VEep68Vo2cClbsWvtH8e" version="17.4.5" type="github">
  <diagram id="R2lEEEUBdFMjLlhIrx00" name="Page-1">
    <mxGraphModel dx="3123" dy="12427" grid="0" gridSize="10" guides="1" tooltips="1" connect="1" arrows="1" fold="1" page="1" pageScale="1" pageWidth="10050" pageHeight="11100" math="0" shadow="0" extFonts="Permanent Marker^https://fonts.googleapis.com/css?family=Permanent+Marker">
      <root>
        <mxCell id="0" />
        <mxCell id="1" parent="0" />
        <mxCell id="Z8kXA77HU9Zu7usbfkjC-19" value="职位id" style="ellipse;whiteSpace=wrap;html=1;align=center;fillColor=default;fontStyle=1;fontSize=24;" vertex="1" parent="1">
          <mxGeometry x="1039" y="624" width="94" height="34" as="geometry" />
        </mxCell>
        <mxCell id="Z8kXA77HU9Zu7usbfkjC-20" value="上司id" style="ellipse;whiteSpace=wrap;html=1;align=center;fillColor=default;fontStyle=1;fontSize=24;" vertex="1" parent="1">
          <mxGeometry x="1577" y="582" width="94" height="34" as="geometry" />
        </mxCell>
        <mxCell id="Z8kXA77HU9Zu7usbfkjC-21" value="部门id" style="ellipse;whiteSpace=wrap;html=1;align=center;fillColor=default;fontStyle=1;fontSize=24;" vertex="1" parent="1">
          <mxGeometry x="1020.5" y="582" width="94" height="34" as="geometry" />
        </mxCell>
        <mxCell id="Z8kXA77HU9Zu7usbfkjC-33" value="" style="endArrow=none;html=1;rounded=0;entryX=0;entryY=0.5;entryDx=0;entryDy=0;exitX=0.5;exitY=1;exitDx=0;exitDy=0;" edge="1" parent="1" source="Z8kXA77HU9Zu7usbfkjC-90" target="Z8kXA77HU9Zu7usbfkjC-20">
          <mxGeometry width="50" height="50" relative="1" as="geometry">
            <mxPoint x="1414" y="786.5" as="sourcePoint" />
            <mxPoint x="1673" y="860.5" as="targetPoint" />
            <Array as="points" />
          </mxGeometry>
        </mxCell>
        <mxCell id="Z8kXA77HU9Zu7usbfkjC-41" value="" style="endArrow=none;html=1;rounded=0;exitX=0.5;exitY=1;exitDx=0;exitDy=0;entryX=0.5;entryY=0;entryDx=0;entryDy=0;" edge="1" parent="1" source="Z8kXA77HU9Zu7usbfkjC-90" target="Z8kXA77HU9Zu7usbfkjC-96">
          <mxGeometry width="50" height="50" relative="1" as="geometry">
            <mxPoint x="1482.0000000000005" y="731" as="sourcePoint" />
            <mxPoint x="1342" y="1040.5" as="targetPoint" />
          </mxGeometry>
        </mxCell>
        <mxCell id="Z8kXA77HU9Zu7usbfkjC-47" value="" style="endArrow=none;html=1;rounded=0;" edge="1" parent="1" target="Z8kXA77HU9Zu7usbfkjC-92">
          <mxGeometry width="50" height="50" relative="1" as="geometry">
            <mxPoint x="1372" y="566" as="sourcePoint" />
            <mxPoint x="1117.4450803354102" y="869.2497138490658" as="targetPoint" />
          </mxGeometry>
        </mxCell>
        <mxCell id="Z8kXA77HU9Zu7usbfkjC-48" value="" style="endArrow=none;html=1;rounded=0;entryX=0;entryY=0.5;entryDx=0;entryDy=0;exitX=0.5;exitY=0;exitDx=0;exitDy=0;" edge="1" parent="1" source="Z8kXA77HU9Zu7usbfkjC-19" target="Z8kXA77HU9Zu7usbfkjC-90">
          <mxGeometry width="50" height="50" relative="1" as="geometry">
            <mxPoint x="1623" y="910.5" as="sourcePoint" />
            <mxPoint x="1434.0000000000005" y="722.75" as="targetPoint" />
          </mxGeometry>
        </mxCell>
        <mxCell id="Z8kXA77HU9Zu7usbfkjC-49" value="" style="endArrow=none;html=1;rounded=0;exitX=0.5;exitY=0;exitDx=0;exitDy=0;entryX=0;entryY=0.5;entryDx=0;entryDy=0;" edge="1" parent="1" source="Z8kXA77HU9Zu7usbfkjC-21" target="Z8kXA77HU9Zu7usbfkjC-90">
          <mxGeometry width="50" height="50" relative="1" as="geometry">
            <mxPoint x="1074.7031105933547" y="808.5340275931387" as="sourcePoint" />
            <mxPoint x="1314" y="779.5" as="targetPoint" />
          </mxGeometry>
        </mxCell>
        <mxCell id="Z8kXA77HU9Zu7usbfkjC-61" value="" style="endArrow=none;html=1;rounded=0;exitX=1;exitY=0.5;exitDx=0;exitDy=0;entryX=0;entryY=0.5;entryDx=0;entryDy=0;" edge="1" parent="1" source="Z8kXA77HU9Zu7usbfkjC-64" target="Z8kXA77HU9Zu7usbfkjC-90">
          <mxGeometry width="50" height="50" relative="1" as="geometry">
            <mxPoint x="957.5" y="688" as="sourcePoint" />
            <mxPoint x="1316" y="763.5" as="targetPoint" />
          </mxGeometry>
        </mxCell>
        <mxCell id="Z8kXA77HU9Zu7usbfkjC-62" value="&lt;font style=&quot;font-size: 24px ; font-weight: normal&quot;&gt;1&lt;/font&gt;" style="text;strokeColor=none;fillColor=none;html=1;fontSize=24;fontStyle=1;verticalAlign=middle;align=center;" vertex="1" parent="1">
          <mxGeometry x="1244" y="382" width="91" height="35" as="geometry" />
        </mxCell>
        <mxCell id="Z8kXA77HU9Zu7usbfkjC-64" value="&lt;font style=&quot;font-size: 24px&quot;&gt;&lt;b&gt;发布&lt;/b&gt;&lt;/font&gt;" style="shape=rhombus;perimeter=rhombusPerimeter;whiteSpace=wrap;html=1;align=center;fontSize=18;fillColor=default;" vertex="1" parent="1">
          <mxGeometry x="855" y="521" width="113" height="57" as="geometry" />
        </mxCell>
        <mxCell id="Z8kXA77HU9Zu7usbfkjC-65" value="" style="endArrow=none;html=1;rounded=0;fontSize=18;exitX=0;exitY=0.5;exitDx=0;exitDy=0;entryX=1;entryY=0.25;entryDx=0;entryDy=0;" edge="1" parent="1" source="Z8kXA77HU9Zu7usbfkjC-64" target="Z8kXA77HU9Zu7usbfkjC-67">
          <mxGeometry width="50" height="50" relative="1" as="geometry">
            <mxPoint x="1117" y="725" as="sourcePoint" />
            <mxPoint x="588" y="794" as="targetPoint" />
          </mxGeometry>
        </mxCell>
        <mxCell id="Z8kXA77HU9Zu7usbfkjC-66" value="&lt;font style=&quot;font-size: 24px&quot;&gt;n&lt;/font&gt;" style="text;strokeColor=none;fillColor=none;html=1;fontSize=24;fontStyle=1;verticalAlign=middle;align=center;" vertex="1" parent="1">
          <mxGeometry x="703" y="498.5" width="100" height="40" as="geometry" />
        </mxCell>
        <mxCell id="Z8kXA77HU9Zu7usbfkjC-67" value="&lt;font style=&quot;font-size: 24px&quot;&gt;&lt;b&gt;公告&lt;/b&gt;&lt;/font&gt;" style="whiteSpace=wrap;html=1;align=center;" vertex="1" parent="1">
          <mxGeometry x="533.5" y="538.5" width="96" height="33" as="geometry" />
        </mxCell>
        <mxCell id="Z8kXA77HU9Zu7usbfkjC-68" value="创建时间" style="ellipse;whiteSpace=wrap;html=1;align=center;fillColor=default;fontStyle=1;fontSize=24;" vertex="1" parent="1">
          <mxGeometry x="370" y="592.5" width="112" height="34.5" as="geometry" />
        </mxCell>
        <mxCell id="Z8kXA77HU9Zu7usbfkjC-69" value="修改时间" style="ellipse;whiteSpace=wrap;html=1;align=center;fillColor=default;fontStyle=1;fontSize=24;" vertex="1" parent="1">
          <mxGeometry x="551" y="732" width="109" height="41.5" as="geometry" />
        </mxCell>
        <mxCell id="Z8kXA77HU9Zu7usbfkjC-70" value="内容" style="ellipse;whiteSpace=wrap;html=1;align=center;fillColor=default;fontStyle=1;fontSize=24;" vertex="1" parent="1">
          <mxGeometry x="618" y="700" width="88" height="27" as="geometry" />
        </mxCell>
        <mxCell id="Z8kXA77HU9Zu7usbfkjC-71" value="状态" style="ellipse;whiteSpace=wrap;html=1;align=center;fillColor=default;fontStyle=1;fontSize=24;" vertex="1" parent="1">
          <mxGeometry x="660" y="668" width="87" height="26" as="geometry" />
        </mxCell>
        <mxCell id="Z8kXA77HU9Zu7usbfkjC-72" value="类型" style="ellipse;whiteSpace=wrap;html=1;align=center;fillColor=default;fontStyle=1;fontSize=24;" vertex="1" parent="1">
          <mxGeometry x="691" y="633" width="91" height="29" as="geometry" />
        </mxCell>
        <mxCell id="Z8kXA77HU9Zu7usbfkjC-73" value="用户id" style="ellipse;whiteSpace=wrap;html=1;align=center;fillColor=default;fontStyle=1;fontSize=24;" vertex="1" parent="1">
          <mxGeometry x="427" y="671" width="87" height="29" as="geometry" />
        </mxCell>
        <mxCell id="Z8kXA77HU9Zu7usbfkjC-74" value="标题" style="ellipse;whiteSpace=wrap;html=1;align=center;fillColor=default;fontStyle=1;fontSize=24;" vertex="1" parent="1">
          <mxGeometry x="726" y="599" width="87" height="28" as="geometry" />
        </mxCell>
        <mxCell id="Z8kXA77HU9Zu7usbfkjC-75" value="链接" style="ellipse;whiteSpace=wrap;html=1;align=center;fillColor=default;fontStyle=1;fontSize=24;" vertex="1" parent="1">
          <mxGeometry x="405" y="633" width="87" height="28" as="geometry" />
        </mxCell>
        <mxCell id="Z8kXA77HU9Zu7usbfkjC-77" value="置顶状态" style="ellipse;whiteSpace=wrap;html=1;align=center;fillColor=default;fontStyle=1;fontSize=24;" vertex="1" parent="1">
          <mxGeometry x="471" y="703" width="101" height="36" as="geometry" />
        </mxCell>
        <mxCell id="Z8kXA77HU9Zu7usbfkjC-78" value="" style="endArrow=none;html=1;rounded=0;fontSize=18;entryX=0.5;entryY=1;entryDx=0;entryDy=0;exitX=0;exitY=0;exitDx=0;exitDy=0;" edge="1" parent="1" source="Z8kXA77HU9Zu7usbfkjC-74" target="Z8kXA77HU9Zu7usbfkjC-67">
          <mxGeometry width="50" height="50" relative="1" as="geometry">
            <mxPoint x="1021" y="814" as="sourcePoint" />
            <mxPoint x="1071" y="764" as="targetPoint" />
          </mxGeometry>
        </mxCell>
        <mxCell id="Z8kXA77HU9Zu7usbfkjC-79" value="" style="endArrow=none;html=1;rounded=0;fontSize=18;exitX=0.5;exitY=1;exitDx=0;exitDy=0;" edge="1" parent="1" source="Z8kXA77HU9Zu7usbfkjC-67" target="Z8kXA77HU9Zu7usbfkjC-72">
          <mxGeometry width="50" height="50" relative="1" as="geometry">
            <mxPoint x="1021" y="814" as="sourcePoint" />
            <mxPoint x="1071" y="764" as="targetPoint" />
          </mxGeometry>
        </mxCell>
        <mxCell id="Z8kXA77HU9Zu7usbfkjC-80" value="" style="endArrow=none;html=1;rounded=0;fontSize=18;entryX=0.5;entryY=1;entryDx=0;entryDy=0;" edge="1" parent="1" source="Z8kXA77HU9Zu7usbfkjC-71" target="Z8kXA77HU9Zu7usbfkjC-67">
          <mxGeometry width="50" height="50" relative="1" as="geometry">
            <mxPoint x="1021" y="814" as="sourcePoint" />
            <mxPoint x="1071" y="764" as="targetPoint" />
          </mxGeometry>
        </mxCell>
        <mxCell id="Z8kXA77HU9Zu7usbfkjC-81" value="" style="endArrow=none;html=1;rounded=0;fontSize=18;entryX=0.5;entryY=1;entryDx=0;entryDy=0;" edge="1" parent="1" source="Z8kXA77HU9Zu7usbfkjC-70" target="Z8kXA77HU9Zu7usbfkjC-67">
          <mxGeometry width="50" height="50" relative="1" as="geometry">
            <mxPoint x="1021" y="814" as="sourcePoint" />
            <mxPoint x="1071" y="764" as="targetPoint" />
          </mxGeometry>
        </mxCell>
        <mxCell id="Z8kXA77HU9Zu7usbfkjC-82" value="" style="endArrow=none;html=1;rounded=0;fontSize=18;entryX=0.5;entryY=1;entryDx=0;entryDy=0;" edge="1" parent="1" source="Z8kXA77HU9Zu7usbfkjC-69" target="Z8kXA77HU9Zu7usbfkjC-67">
          <mxGeometry width="50" height="50" relative="1" as="geometry">
            <mxPoint x="1021" y="814" as="sourcePoint" />
            <mxPoint x="1071" y="764" as="targetPoint" />
          </mxGeometry>
        </mxCell>
        <mxCell id="Z8kXA77HU9Zu7usbfkjC-83" value="" style="endArrow=none;html=1;rounded=0;fontSize=18;entryX=0.5;entryY=1;entryDx=0;entryDy=0;" edge="1" parent="1" source="Z8kXA77HU9Zu7usbfkjC-77" target="Z8kXA77HU9Zu7usbfkjC-67">
          <mxGeometry width="50" height="50" relative="1" as="geometry">
            <mxPoint x="1021" y="814" as="sourcePoint" />
            <mxPoint x="1071" y="764" as="targetPoint" />
          </mxGeometry>
        </mxCell>
        <mxCell id="Z8kXA77HU9Zu7usbfkjC-84" value="" style="endArrow=none;html=1;rounded=0;fontSize=18;exitX=0.5;exitY=1;exitDx=0;exitDy=0;entryX=0.782;entryY=0.034;entryDx=0;entryDy=0;entryPerimeter=0;" edge="1" parent="1" source="Z8kXA77HU9Zu7usbfkjC-67" target="Z8kXA77HU9Zu7usbfkjC-73">
          <mxGeometry width="50" height="50" relative="1" as="geometry">
            <mxPoint x="1021" y="814" as="sourcePoint" />
            <mxPoint x="1071" y="764" as="targetPoint" />
          </mxGeometry>
        </mxCell>
        <mxCell id="Z8kXA77HU9Zu7usbfkjC-85" value="" style="endArrow=none;html=1;rounded=0;fontSize=18;entryX=0.5;entryY=1;entryDx=0;entryDy=0;exitX=1;exitY=0;exitDx=0;exitDy=0;" edge="1" parent="1" source="Z8kXA77HU9Zu7usbfkjC-75" target="Z8kXA77HU9Zu7usbfkjC-67">
          <mxGeometry width="50" height="50" relative="1" as="geometry">
            <mxPoint x="1021" y="814" as="sourcePoint" />
            <mxPoint x="1071" y="764" as="targetPoint" />
          </mxGeometry>
        </mxCell>
        <mxCell id="Z8kXA77HU9Zu7usbfkjC-86" value="" style="endArrow=none;html=1;rounded=0;fontSize=18;entryX=0.5;entryY=1;entryDx=0;entryDy=0;exitX=0.754;exitY=0.026;exitDx=0;exitDy=0;exitPerimeter=0;" edge="1" parent="1" source="Z8kXA77HU9Zu7usbfkjC-68" target="Z8kXA77HU9Zu7usbfkjC-67">
          <mxGeometry width="50" height="50" relative="1" as="geometry">
            <mxPoint x="1021" y="814" as="sourcePoint" />
            <mxPoint x="1071" y="764" as="targetPoint" />
          </mxGeometry>
        </mxCell>
        <mxCell id="Z8kXA77HU9Zu7usbfkjC-87" value="" style="endArrow=none;html=1;rounded=0;fontSize=18;entryX=0.5;entryY=0;entryDx=0;entryDy=0;exitX=0.5;exitY=1;exitDx=0;exitDy=0;" edge="1" parent="1" source="Z8kXA77HU9Zu7usbfkjC-89" target="Z8kXA77HU9Zu7usbfkjC-67">
          <mxGeometry width="50" height="50" relative="1" as="geometry">
            <mxPoint x="568" y="502" as="sourcePoint" />
            <mxPoint x="1061" y="836" as="targetPoint" />
          </mxGeometry>
        </mxCell>
        <mxCell id="Z8kXA77HU9Zu7usbfkjC-88" value="&lt;font style=&quot;font-size: 24px ; font-weight: normal&quot;&gt;n&lt;/font&gt;" style="text;strokeColor=none;fillColor=none;html=1;fontSize=24;fontStyle=1;verticalAlign=middle;align=center;" vertex="1" parent="1">
          <mxGeometry x="566" y="336.5" width="100" height="40" as="geometry" />
        </mxCell>
        <mxCell id="Z8kXA77HU9Zu7usbfkjC-89" value="&lt;font style=&quot;font-size: 24px&quot;&gt;&lt;b&gt;查看&lt;/b&gt;&lt;/font&gt;" style="shape=rhombus;perimeter=rhombusPerimeter;whiteSpace=wrap;html=1;align=center;fontSize=18;fillColor=default;" vertex="1" parent="1">
          <mxGeometry x="528" y="162.5" width="107" height="51" as="geometry" />
        </mxCell>
        <mxCell id="Z8kXA77HU9Zu7usbfkjC-90" value="&lt;font style=&quot;font-size: 24px&quot;&gt;&lt;b&gt;管理员&lt;/b&gt;&lt;/font&gt;" style="whiteSpace=wrap;html=1;align=center;" vertex="1" parent="1">
          <mxGeometry x="1323.5" y="538.5" width="96" height="33" as="geometry" />
        </mxCell>
        <mxCell id="Z8kXA77HU9Zu7usbfkjC-91" value="用户名" style="ellipse;whiteSpace=wrap;html=1;align=center;fillColor=default;fontStyle=1;fontSize=24;" vertex="1" parent="1">
          <mxGeometry x="1100" y="700" width="94" height="34" as="geometry" />
        </mxCell>
        <mxCell id="Z8kXA77HU9Zu7usbfkjC-92" value="真实姓名" style="ellipse;whiteSpace=wrap;html=1;align=center;fillColor=default;fontStyle=1;fontSize=24;" vertex="1" parent="1">
          <mxGeometry x="1125" y="742" width="108" height="36.5" as="geometry" />
        </mxCell>
        <mxCell id="Z8kXA77HU9Zu7usbfkjC-93" value="密码" style="ellipse;whiteSpace=wrap;html=1;align=center;fillColor=default;fontStyle=1;fontSize=24;" vertex="1" parent="1">
          <mxGeometry x="1187.5" y="776" width="94" height="34" as="geometry" />
        </mxCell>
        <mxCell id="Z8kXA77HU9Zu7usbfkjC-94" value="地址" style="ellipse;whiteSpace=wrap;html=1;align=center;fillColor=default;fontStyle=1;fontSize=24;" vertex="1" parent="1">
          <mxGeometry x="1203" y="810" width="94" height="34" as="geometry" />
        </mxCell>
        <mxCell id="Z8kXA77HU9Zu7usbfkjC-95" value="银行卡" style="ellipse;whiteSpace=wrap;html=1;align=center;fillColor=default;fontStyle=1;fontSize=24;" vertex="1" parent="1">
          <mxGeometry x="1285" y="789" width="94" height="34" as="geometry" />
        </mxCell>
        <mxCell id="Z8kXA77HU9Zu7usbfkjC-96" value="生日" style="ellipse;whiteSpace=wrap;html=1;align=center;fillColor=default;fontStyle=1;fontSize=24;" vertex="1" parent="1">
          <mxGeometry x="1335" y="755" width="94" height="34" as="geometry" />
        </mxCell>
        <mxCell id="Z8kXA77HU9Zu7usbfkjC-97" value="邮件" style="ellipse;whiteSpace=wrap;html=1;align=center;fillColor=default;fontStyle=1;fontSize=24;" vertex="1" parent="1">
          <mxGeometry x="1379" y="789" width="94" height="34" as="geometry" />
        </mxCell>
        <mxCell id="Z8kXA77HU9Zu7usbfkjC-98" value="身份证" style="ellipse;whiteSpace=wrap;html=1;align=center;fillColor=default;fontStyle=1;fontSize=24;" vertex="1" parent="1">
          <mxGeometry x="1475.5" y="782" width="94" height="34" as="geometry" />
        </mxCell>
        <mxCell id="Z8kXA77HU9Zu7usbfkjC-99" value="薪资" style="ellipse;whiteSpace=wrap;html=1;align=center;fillColor=default;fontStyle=1;fontSize=24;" vertex="1" parent="1">
          <mxGeometry x="1486.5" y="744.5" width="94" height="34" as="geometry" />
        </mxCell>
        <mxCell id="Z8kXA77HU9Zu7usbfkjC-100" value="学校" style="ellipse;whiteSpace=wrap;html=1;align=center;fillColor=default;fontStyle=1;fontSize=24;" vertex="1" parent="1">
          <mxGeometry x="1505" y="700" width="94" height="34" as="geometry" />
        </mxCell>
        <mxCell id="Z8kXA77HU9Zu7usbfkjC-101" value="性别" style="ellipse;whiteSpace=wrap;html=1;align=center;fillColor=default;fontStyle=1;fontSize=24;" vertex="1" parent="1">
          <mxGeometry x="1544" y="666" width="94" height="34" as="geometry" />
        </mxCell>
        <mxCell id="Z8kXA77HU9Zu7usbfkjC-102" value="学历" style="ellipse;whiteSpace=wrap;html=1;align=center;fillColor=default;fontStyle=1;fontSize=24;" vertex="1" parent="1">
          <mxGeometry x="1064" y="662" width="94" height="34" as="geometry" />
        </mxCell>
        <mxCell id="Z8kXA77HU9Zu7usbfkjC-103" value="电话" style="ellipse;whiteSpace=wrap;html=1;align=center;fillColor=default;fontStyle=1;fontSize=24;" vertex="1" parent="1">
          <mxGeometry x="1555" y="627" width="94" height="34" as="geometry" />
        </mxCell>
        <mxCell id="Z8kXA77HU9Zu7usbfkjC-105" value="" style="endArrow=none;html=1;rounded=0;exitX=0.5;exitY=1;exitDx=0;exitDy=0;" edge="1" parent="1" target="Z8kXA77HU9Zu7usbfkjC-103" source="Z8kXA77HU9Zu7usbfkjC-90">
          <mxGeometry width="50" height="50" relative="1" as="geometry">
            <mxPoint x="1414" y="784.5" as="sourcePoint" />
            <mxPoint x="1673" y="860.5" as="targetPoint" />
          </mxGeometry>
        </mxCell>
        <mxCell id="Z8kXA77HU9Zu7usbfkjC-106" value="" style="endArrow=none;html=1;rounded=0;entryX=0.42;entryY=0.048;entryDx=0;entryDy=0;entryPerimeter=0;exitX=0.5;exitY=1;exitDx=0;exitDy=0;" edge="1" parent="1" source="Z8kXA77HU9Zu7usbfkjC-90" target="Z8kXA77HU9Zu7usbfkjC-101">
          <mxGeometry width="50" height="50" relative="1" as="geometry">
            <mxPoint x="1414" y="784.5" as="sourcePoint" />
            <mxPoint x="1538" y="892.4999999999998" as="targetPoint" />
          </mxGeometry>
        </mxCell>
        <mxCell id="Z8kXA77HU9Zu7usbfkjC-107" value="" style="endArrow=none;html=1;rounded=0;entryX=0.5;entryY=0;entryDx=0;entryDy=0;exitX=0.5;exitY=1;exitDx=0;exitDy=0;" edge="1" parent="1" target="Z8kXA77HU9Zu7usbfkjC-100" source="Z8kXA77HU9Zu7usbfkjC-90">
          <mxGeometry width="50" height="50" relative="1" as="geometry">
            <mxPoint x="1365" y="785.5" as="sourcePoint" />
            <mxPoint x="1673" y="860.5" as="targetPoint" />
          </mxGeometry>
        </mxCell>
        <mxCell id="Z8kXA77HU9Zu7usbfkjC-108" value="" style="endArrow=none;html=1;rounded=0;exitX=0.5;exitY=1;exitDx=0;exitDy=0;" edge="1" parent="1" target="Z8kXA77HU9Zu7usbfkjC-99" source="Z8kXA77HU9Zu7usbfkjC-90">
          <mxGeometry width="50" height="50" relative="1" as="geometry">
            <mxPoint x="1365" y="788.5" as="sourcePoint" />
            <mxPoint x="1673" y="860.5" as="targetPoint" />
          </mxGeometry>
        </mxCell>
        <mxCell id="Z8kXA77HU9Zu7usbfkjC-109" value="" style="endArrow=none;html=1;rounded=0;exitX=0.5;exitY=1;exitDx=0;exitDy=0;entryX=0;entryY=0;entryDx=0;entryDy=0;" edge="1" parent="1" source="Z8kXA77HU9Zu7usbfkjC-90" target="Z8kXA77HU9Zu7usbfkjC-98">
          <mxGeometry width="50" height="50" relative="1" as="geometry">
            <mxPoint x="1367" y="803.5" as="sourcePoint" />
            <mxPoint x="1438" y="985.5" as="targetPoint" />
          </mxGeometry>
        </mxCell>
        <mxCell id="Z8kXA77HU9Zu7usbfkjC-110" value="" style="endArrow=none;html=1;rounded=0;exitX=0.5;exitY=1;exitDx=0;exitDy=0;" edge="1" parent="1" source="Z8kXA77HU9Zu7usbfkjC-90">
          <mxGeometry width="50" height="50" relative="1" as="geometry">
            <mxPoint x="1623" y="910.5" as="sourcePoint" />
            <mxPoint x="1439" y="808" as="targetPoint" />
          </mxGeometry>
        </mxCell>
        <mxCell id="Z8kXA77HU9Zu7usbfkjC-112" value="" style="endArrow=none;html=1;rounded=0;entryX=0;entryY=0;entryDx=0;entryDy=0;" edge="1" parent="1" target="Z8kXA77HU9Zu7usbfkjC-95">
          <mxGeometry width="50" height="50" relative="1" as="geometry">
            <mxPoint x="1372" y="568" as="sourcePoint" />
            <mxPoint x="1310" y="826" as="targetPoint" />
          </mxGeometry>
        </mxCell>
        <mxCell id="Z8kXA77HU9Zu7usbfkjC-113" value="" style="endArrow=none;html=1;rounded=0;entryX=1;entryY=0;entryDx=0;entryDy=0;exitX=0.5;exitY=1;exitDx=0;exitDy=0;" edge="1" parent="1" target="Z8kXA77HU9Zu7usbfkjC-94" source="Z8kXA77HU9Zu7usbfkjC-90">
          <mxGeometry width="50" height="50" relative="1" as="geometry">
            <mxPoint x="1360.9999999999995" y="789.5" as="sourcePoint" />
            <mxPoint x="1673" y="860.5" as="targetPoint" />
          </mxGeometry>
        </mxCell>
        <mxCell id="Z8kXA77HU9Zu7usbfkjC-114" value="" style="endArrow=none;html=1;rounded=0;" edge="1" parent="1" source="Z8kXA77HU9Zu7usbfkjC-93">
          <mxGeometry width="50" height="50" relative="1" as="geometry">
            <mxPoint x="1623" y="910.5" as="sourcePoint" />
            <mxPoint x="1373" y="568" as="targetPoint" />
          </mxGeometry>
        </mxCell>
        <mxCell id="Z8kXA77HU9Zu7usbfkjC-115" value="" style="endArrow=none;html=1;rounded=0;exitX=0;exitY=0.75;exitDx=0;exitDy=0;entryX=0.5;entryY=0;entryDx=0;entryDy=0;" edge="1" parent="1" target="Z8kXA77HU9Zu7usbfkjC-91" source="Z8kXA77HU9Zu7usbfkjC-90">
          <mxGeometry width="50" height="50" relative="1" as="geometry">
            <mxPoint x="1316" y="779.5" as="sourcePoint" />
            <mxPoint x="1673" y="860.5" as="targetPoint" />
          </mxGeometry>
        </mxCell>
        <mxCell id="Z8kXA77HU9Zu7usbfkjC-116" value="" style="endArrow=none;html=1;rounded=0;exitX=0;exitY=0.75;exitDx=0;exitDy=0;" edge="1" parent="1" source="Z8kXA77HU9Zu7usbfkjC-90" target="Z8kXA77HU9Zu7usbfkjC-102">
          <mxGeometry width="50" height="50" relative="1" as="geometry">
            <mxPoint x="1623" y="910.5" as="sourcePoint" />
            <mxPoint x="1673" y="860.5" as="targetPoint" />
          </mxGeometry>
        </mxCell>
        <mxCell id="Z8kXA77HU9Zu7usbfkjC-134" value="&lt;font style=&quot;font-size: 24px&quot;&gt;&lt;b&gt;职位id&lt;/b&gt;&lt;/font&gt;" style="ellipse;whiteSpace=wrap;html=1;align=center;fillColor=default;" vertex="1" parent="1">
          <mxGeometry x="1093.5" y="-293.5" width="94" height="34" as="geometry" />
        </mxCell>
        <mxCell id="Z8kXA77HU9Zu7usbfkjC-135" value="&lt;font style=&quot;font-size: 24px&quot;&gt;&lt;b&gt;上司id&lt;/b&gt;&lt;/font&gt;" style="ellipse;whiteSpace=wrap;html=1;align=center;fillColor=default;" vertex="1" parent="1">
          <mxGeometry x="1599.5" y="-245.5" width="94" height="34" as="geometry" />
        </mxCell>
        <mxCell id="Z8kXA77HU9Zu7usbfkjC-136" value="&lt;font style=&quot;font-size: 24px&quot;&gt;&lt;b&gt;部门id&lt;/b&gt;&lt;/font&gt;" style="ellipse;whiteSpace=wrap;html=1;align=center;fillColor=default;" vertex="1" parent="1">
          <mxGeometry x="1099.5" y="-329.5" width="94" height="34" as="geometry" />
        </mxCell>
        <mxCell id="Z8kXA77HU9Zu7usbfkjC-137" value="" style="endArrow=none;html=1;rounded=0;entryX=0;entryY=0.5;entryDx=0;entryDy=0;exitX=1;exitY=0;exitDx=0;exitDy=0;" edge="1" parent="1" target="Z8kXA77HU9Zu7usbfkjC-135" source="Z8kXA77HU9Zu7usbfkjC-153">
          <mxGeometry width="50" height="50" relative="1" as="geometry">
            <mxPoint x="1398.5" y="-194.5" as="sourcePoint" />
            <mxPoint x="1657" y="-121.5" as="targetPoint" />
            <Array as="points" />
          </mxGeometry>
        </mxCell>
        <mxCell id="Z8kXA77HU9Zu7usbfkjC-150" value="" style="endArrow=none;html=1;rounded=0;entryX=0.25;entryY=0;entryDx=0;entryDy=0;" edge="1" parent="1" source="Z8kXA77HU9Zu7usbfkjC-134" target="Z8kXA77HU9Zu7usbfkjC-153">
          <mxGeometry width="50" height="50" relative="1" as="geometry">
            <mxPoint x="1607" y="-71.5" as="sourcePoint" />
            <mxPoint x="1304.5" y="-210.5" as="targetPoint" />
          </mxGeometry>
        </mxCell>
        <mxCell id="Z8kXA77HU9Zu7usbfkjC-153" value="&lt;font style=&quot;font-size: 24px&quot;&gt;&lt;b&gt;用户&lt;/b&gt;&lt;/font&gt;" style="whiteSpace=wrap;html=1;align=center;" vertex="1" parent="1">
          <mxGeometry x="1323.5" y="-201.5" width="96" height="33" as="geometry" />
        </mxCell>
        <mxCell id="Z8kXA77HU9Zu7usbfkjC-154" value="&lt;font style=&quot;font-size: 24px&quot;&gt;&lt;b&gt;用户名&lt;/b&gt;&lt;/font&gt;" style="ellipse;whiteSpace=wrap;html=1;align=center;fillColor=default;" vertex="1" parent="1">
          <mxGeometry x="1114.5" y="-368.5" width="94" height="34" as="geometry" />
        </mxCell>
        <mxCell id="Z8kXA77HU9Zu7usbfkjC-155" value="&lt;font style=&quot;font-size: 24px&quot;&gt;&lt;b&gt;真实姓名&lt;/b&gt;&lt;/font&gt;" style="ellipse;whiteSpace=wrap;html=1;align=center;fillColor=default;" vertex="1" parent="1">
          <mxGeometry x="1145" y="-411" width="103" height="38.5" as="geometry" />
        </mxCell>
        <mxCell id="Z8kXA77HU9Zu7usbfkjC-156" value="&lt;font style=&quot;font-size: 24px&quot;&gt;&lt;b&gt;密码&lt;/b&gt;&lt;/font&gt;" style="ellipse;whiteSpace=wrap;html=1;align=center;fillColor=default;" vertex="1" parent="1">
          <mxGeometry x="1223" y="-381.5" width="94" height="34" as="geometry" />
        </mxCell>
        <mxCell id="Z8kXA77HU9Zu7usbfkjC-157" value="&lt;font style=&quot;font-size: 24px&quot;&gt;&lt;b&gt;地址&lt;/b&gt;&lt;/font&gt;" style="ellipse;whiteSpace=wrap;html=1;align=center;fillColor=default;" vertex="1" parent="1">
          <mxGeometry x="1275" y="-423" width="94" height="34" as="geometry" />
        </mxCell>
        <mxCell id="Z8kXA77HU9Zu7usbfkjC-158" value="&lt;font style=&quot;font-size: 24px&quot;&gt;&lt;b&gt;银行卡&lt;/b&gt;&lt;/font&gt;" style="ellipse;whiteSpace=wrap;html=1;align=center;fillColor=default;" vertex="1" parent="1">
          <mxGeometry x="1343" y="-390" width="94" height="35" as="geometry" />
        </mxCell>
        <mxCell id="Z8kXA77HU9Zu7usbfkjC-159" value="&lt;font style=&quot;font-size: 24px&quot;&gt;&lt;b&gt;生日&lt;/b&gt;&lt;/font&gt;" style="ellipse;whiteSpace=wrap;html=1;align=center;fillColor=default;" vertex="1" parent="1">
          <mxGeometry x="1411" y="-427" width="94" height="34" as="geometry" />
        </mxCell>
        <mxCell id="Z8kXA77HU9Zu7usbfkjC-160" value="&lt;font style=&quot;font-size: 24px&quot;&gt;&lt;b&gt;邮件&lt;/b&gt;&lt;/font&gt;" style="ellipse;whiteSpace=wrap;html=1;align=center;fillColor=default;" vertex="1" parent="1">
          <mxGeometry x="1486.5" y="-405.5" width="94" height="34" as="geometry" />
        </mxCell>
        <mxCell id="Z8kXA77HU9Zu7usbfkjC-161" value="&lt;font style=&quot;font-size: 24px&quot;&gt;&lt;b&gt;身份证&lt;/b&gt;&lt;/font&gt;" style="ellipse;whiteSpace=wrap;html=1;align=center;fillColor=default;" vertex="1" parent="1">
          <mxGeometry x="1569.5" y="-381.5" width="94" height="34" as="geometry" />
        </mxCell>
        <mxCell id="Z8kXA77HU9Zu7usbfkjC-162" value="&lt;font style=&quot;font-size: 24px&quot;&gt;&lt;b&gt;薪资&lt;/b&gt;&lt;/font&gt;" style="ellipse;whiteSpace=wrap;html=1;align=center;fillColor=default;" vertex="1" parent="1">
          <mxGeometry x="1599.5" y="-347.5" width="94" height="34" as="geometry" />
        </mxCell>
        <mxCell id="Z8kXA77HU9Zu7usbfkjC-163" value="&lt;font style=&quot;font-size: 24px&quot;&gt;&lt;b&gt;学校&lt;/b&gt;&lt;/font&gt;" style="ellipse;whiteSpace=wrap;html=1;align=center;fillColor=default;" vertex="1" parent="1">
          <mxGeometry x="1566.5" y="-313.5" width="94" height="34" as="geometry" />
        </mxCell>
        <mxCell id="Z8kXA77HU9Zu7usbfkjC-164" value="&lt;font style=&quot;font-size: 24px&quot;&gt;&lt;b&gt;性别&lt;/b&gt;&lt;/font&gt;" style="ellipse;whiteSpace=wrap;html=1;align=center;fillColor=default;" vertex="1" parent="1">
          <mxGeometry x="1524.5" y="-279.5" width="94" height="34" as="geometry" />
        </mxCell>
        <mxCell id="Z8kXA77HU9Zu7usbfkjC-165" value="&lt;font style=&quot;font-size: 24px&quot;&gt;&lt;b&gt;学历&lt;/b&gt;&lt;/font&gt;" style="ellipse;whiteSpace=wrap;html=1;align=center;fillColor=default;" vertex="1" parent="1">
          <mxGeometry x="1096.5" y="-259.5" width="94" height="34" as="geometry" />
        </mxCell>
        <mxCell id="Z8kXA77HU9Zu7usbfkjC-166" value="&lt;font style=&quot;font-size: 24px&quot;&gt;&lt;b&gt;电话&lt;/b&gt;&lt;/font&gt;" style="ellipse;whiteSpace=wrap;html=1;align=center;fillColor=default;" vertex="1" parent="1">
          <mxGeometry x="1624" y="-281" width="94" height="34" as="geometry" />
        </mxCell>
        <mxCell id="Z8kXA77HU9Zu7usbfkjC-168" value="" style="endArrow=none;html=1;rounded=0;exitX=1;exitY=0;exitDx=0;exitDy=0;" edge="1" parent="1" source="Z8kXA77HU9Zu7usbfkjC-153">
          <mxGeometry width="50" height="50" relative="1" as="geometry">
            <mxPoint x="1398" y="-197.5" as="sourcePoint" />
            <mxPoint x="1636.1234175204372" y="-253.21837698696027" as="targetPoint" />
          </mxGeometry>
        </mxCell>
        <mxCell id="Z8kXA77HU9Zu7usbfkjC-170" value="" style="endArrow=none;html=1;rounded=0;entryX=0.032;entryY=0.324;entryDx=0;entryDy=0;entryPerimeter=0;exitX=1;exitY=0;exitDx=0;exitDy=0;" edge="1" parent="1" target="Z8kXA77HU9Zu7usbfkjC-163" source="Z8kXA77HU9Zu7usbfkjC-153">
          <mxGeometry width="50" height="50" relative="1" as="geometry">
            <mxPoint x="1349" y="-196.5" as="sourcePoint" />
            <mxPoint x="1657" y="-121.5" as="targetPoint" />
          </mxGeometry>
        </mxCell>
        <mxCell id="Z8kXA77HU9Zu7usbfkjC-171" value="" style="endArrow=none;html=1;rounded=0;exitX=0.5;exitY=0;exitDx=0;exitDy=0;entryX=0;entryY=0.5;entryDx=0;entryDy=0;" edge="1" parent="1" target="Z8kXA77HU9Zu7usbfkjC-162" source="Z8kXA77HU9Zu7usbfkjC-153">
          <mxGeometry width="50" height="50" relative="1" as="geometry">
            <mxPoint x="1349" y="-193.5" as="sourcePoint" />
            <mxPoint x="1657" y="-121.5" as="targetPoint" />
          </mxGeometry>
        </mxCell>
        <mxCell id="Z8kXA77HU9Zu7usbfkjC-172" value="" style="endArrow=none;html=1;rounded=0;exitX=0;exitY=0.5;exitDx=0;exitDy=0;entryX=0.5;entryY=0;entryDx=0;entryDy=0;" edge="1" parent="1" source="Z8kXA77HU9Zu7usbfkjC-161" target="Z8kXA77HU9Zu7usbfkjC-153">
          <mxGeometry width="50" height="50" relative="1" as="geometry">
            <mxPoint x="1351" y="-178.5" as="sourcePoint" />
            <mxPoint x="1422" y="3.5" as="targetPoint" />
          </mxGeometry>
        </mxCell>
        <mxCell id="Z8kXA77HU9Zu7usbfkjC-173" value="" style="endArrow=none;html=1;rounded=0;entryX=0.5;entryY=1;entryDx=0;entryDy=0;exitX=0.5;exitY=0;exitDx=0;exitDy=0;" edge="1" parent="1" source="Z8kXA77HU9Zu7usbfkjC-153" target="Z8kXA77HU9Zu7usbfkjC-160">
          <mxGeometry width="50" height="50" relative="1" as="geometry">
            <mxPoint x="1349.5" y="-229.5" as="sourcePoint" />
            <mxPoint x="1369.9999999999995" y="29.5" as="targetPoint" />
          </mxGeometry>
        </mxCell>
        <mxCell id="Z8kXA77HU9Zu7usbfkjC-174" value="" style="endArrow=none;html=1;rounded=0;exitX=0.5;exitY=0;exitDx=0;exitDy=0;entryX=0.5;entryY=1;entryDx=0;entryDy=0;" edge="1" parent="1" source="Z8kXA77HU9Zu7usbfkjC-153" target="Z8kXA77HU9Zu7usbfkjC-159">
          <mxGeometry width="50" height="50" relative="1" as="geometry">
            <mxPoint x="1346" y="-182.5" as="sourcePoint" />
            <mxPoint x="1326" y="58.5" as="targetPoint" />
          </mxGeometry>
        </mxCell>
        <mxCell id="Z8kXA77HU9Zu7usbfkjC-175" value="" style="endArrow=none;html=1;rounded=0;entryX=0.5;entryY=1;entryDx=0;entryDy=0;exitX=0.5;exitY=0;exitDx=0;exitDy=0;" edge="1" parent="1" source="Z8kXA77HU9Zu7usbfkjC-153" target="Z8kXA77HU9Zu7usbfkjC-158">
          <mxGeometry width="50" height="50" relative="1" as="geometry">
            <mxPoint x="1346.5" y="-228.5" as="sourcePoint" />
            <mxPoint x="1257" y="55.49999999999977" as="targetPoint" />
          </mxGeometry>
        </mxCell>
        <mxCell id="Z8kXA77HU9Zu7usbfkjC-176" value="" style="endArrow=none;html=1;rounded=0;entryX=0.5;entryY=1;entryDx=0;entryDy=0;exitX=0.5;exitY=0;exitDx=0;exitDy=0;" edge="1" parent="1" target="Z8kXA77HU9Zu7usbfkjC-157" source="Z8kXA77HU9Zu7usbfkjC-153">
          <mxGeometry width="50" height="50" relative="1" as="geometry">
            <mxPoint x="1349.5" y="-226.5" as="sourcePoint" />
            <mxPoint x="1657" y="-121.5" as="targetPoint" />
          </mxGeometry>
        </mxCell>
        <mxCell id="Z8kXA77HU9Zu7usbfkjC-177" value="" style="endArrow=none;html=1;rounded=0;entryX=0.5;entryY=0;entryDx=0;entryDy=0;" edge="1" parent="1" source="Z8kXA77HU9Zu7usbfkjC-156" target="Z8kXA77HU9Zu7usbfkjC-153">
          <mxGeometry width="50" height="50" relative="1" as="geometry">
            <mxPoint x="1607" y="-71.5" as="sourcePoint" />
            <mxPoint x="1343" y="-184.5" as="targetPoint" />
          </mxGeometry>
        </mxCell>
        <mxCell id="Z8kXA77HU9Zu7usbfkjC-178" value="" style="endArrow=none;html=1;rounded=0;entryX=1;entryY=1;entryDx=0;entryDy=0;exitX=0.25;exitY=0;exitDx=0;exitDy=0;" edge="1" parent="1" target="Z8kXA77HU9Zu7usbfkjC-154" source="Z8kXA77HU9Zu7usbfkjC-153">
          <mxGeometry width="50" height="50" relative="1" as="geometry">
            <mxPoint x="1297.5" y="-216.5" as="sourcePoint" />
            <mxPoint x="1657" y="-121.5" as="targetPoint" />
          </mxGeometry>
        </mxCell>
        <mxCell id="Z8kXA77HU9Zu7usbfkjC-179" value="" style="endArrow=none;html=1;rounded=0;exitX=0.393;exitY=-0.009;exitDx=0;exitDy=0;exitPerimeter=0;" edge="1" parent="1" source="Z8kXA77HU9Zu7usbfkjC-153" target="Z8kXA77HU9Zu7usbfkjC-165">
          <mxGeometry width="50" height="50" relative="1" as="geometry">
            <mxPoint x="1301.5" y="-210.5" as="sourcePoint" />
            <mxPoint x="1657" y="-121.5" as="targetPoint" />
          </mxGeometry>
        </mxCell>
        <mxCell id="Z8kXA77HU9Zu7usbfkjC-181" value="" style="endArrow=none;html=1;rounded=0;exitX=1;exitY=0.441;exitDx=0;exitDy=0;exitPerimeter=0;entryX=0.25;entryY=0;entryDx=0;entryDy=0;" edge="1" parent="1" source="Z8kXA77HU9Zu7usbfkjC-136" target="Z8kXA77HU9Zu7usbfkjC-153">
          <mxGeometry width="50" height="50" relative="1" as="geometry">
            <mxPoint x="1058.7031105933547" y="-173.46597240686128" as="sourcePoint" />
            <mxPoint x="1298" y="-202.5" as="targetPoint" />
          </mxGeometry>
        </mxCell>
        <mxCell id="Z8kXA77HU9Zu7usbfkjC-183" value="" style="endArrow=none;html=1;rounded=0;entryX=0.5;entryY=1;entryDx=0;entryDy=0;exitX=0.5;exitY=0;exitDx=0;exitDy=0;" edge="1" parent="1" source="Z8kXA77HU9Zu7usbfkjC-153" target="Z8kXA77HU9Zu7usbfkjC-155">
          <mxGeometry width="50" height="50" relative="1" as="geometry">
            <mxPoint x="1304.9999999999995" y="-197.5" as="sourcePoint" />
            <mxPoint x="1259.0559597250876" y="-348.5986489189918" as="targetPoint" />
          </mxGeometry>
        </mxCell>
        <mxCell id="Z8kXA77HU9Zu7usbfkjC-188" value="" style="endArrow=none;html=1;rounded=0;entryX=0;entryY=0.5;entryDx=0;entryDy=0;exitX=1;exitY=0;exitDx=0;exitDy=0;" edge="1" parent="1" source="Z8kXA77HU9Zu7usbfkjC-153" target="Z8kXA77HU9Zu7usbfkjC-164">
          <mxGeometry width="50" height="50" relative="1" as="geometry">
            <mxPoint x="1398" y="-195.5" as="sourcePoint" />
            <mxPoint x="1599.500000000001" y="-172.49999999999977" as="targetPoint" />
            <Array as="points" />
          </mxGeometry>
        </mxCell>
        <mxCell id="Z8kXA77HU9Zu7usbfkjC-189" value="&lt;font style=&quot;font-size: 24px;&quot;&gt;&lt;span style=&quot;font-size: 24px;&quot;&gt;任务&lt;/span&gt;&lt;/font&gt;" style="whiteSpace=wrap;html=1;align=center;fontStyle=1;fontSize=24;" vertex="1" parent="1">
          <mxGeometry x="855" y="251" width="96" height="33" as="geometry" />
        </mxCell>
        <mxCell id="Z8kXA77HU9Zu7usbfkjC-190" value="创建时间" style="ellipse;whiteSpace=wrap;html=1;align=center;fillColor=default;fontStyle=1;fontSize=24;" vertex="1" parent="1">
          <mxGeometry x="880" y="162.5" width="103" height="44.5" as="geometry" />
        </mxCell>
        <mxCell id="Z8kXA77HU9Zu7usbfkjC-191" value="修改时间" style="ellipse;whiteSpace=wrap;html=1;align=center;fillColor=default;fontStyle=1;fontSize=24;" vertex="1" parent="1">
          <mxGeometry x="706" y="281" width="111" height="37.5" as="geometry" />
        </mxCell>
        <mxCell id="Z8kXA77HU9Zu7usbfkjC-192" value="用户id" style="ellipse;whiteSpace=wrap;html=1;align=center;fillColor=default;fontStyle=1;fontSize=24;" vertex="1" parent="1">
          <mxGeometry x="730" y="332.25" width="88" height="27" as="geometry" />
        </mxCell>
        <mxCell id="Z8kXA77HU9Zu7usbfkjC-193" value="评价" style="ellipse;whiteSpace=wrap;html=1;align=center;fillColor=default;fontStyle=1;fontSize=24;" vertex="1" parent="1">
          <mxGeometry x="773" y="368" width="87" height="26" as="geometry" />
        </mxCell>
        <mxCell id="Z8kXA77HU9Zu7usbfkjC-194" value="类型" style="ellipse;whiteSpace=wrap;html=1;align=center;fillColor=default;fontStyle=1;fontSize=24;" vertex="1" parent="1">
          <mxGeometry x="853" y="347.5" width="91" height="29" as="geometry" />
        </mxCell>
        <mxCell id="Z8kXA77HU9Zu7usbfkjC-195" value="开始时间" style="ellipse;whiteSpace=wrap;html=1;align=center;fillColor=default;fontStyle=1;fontSize=24;" vertex="1" parent="1">
          <mxGeometry x="745" y="160.5" width="108" height="46.5" as="geometry" />
        </mxCell>
        <mxCell id="Z8kXA77HU9Zu7usbfkjC-196" value="标题" style="ellipse;whiteSpace=wrap;html=1;align=center;fillColor=default;fontStyle=1;fontSize=24;" vertex="1" parent="1">
          <mxGeometry x="920" y="376.5" width="87" height="28" as="geometry" />
        </mxCell>
        <mxCell id="Z8kXA77HU9Zu7usbfkjC-197" value="内容" style="ellipse;whiteSpace=wrap;html=1;align=center;fillColor=default;fontStyle=1;fontSize=24;" vertex="1" parent="1">
          <mxGeometry x="823" y="137" width="87" height="28" as="geometry" />
        </mxCell>
        <mxCell id="Z8kXA77HU9Zu7usbfkjC-198" value="结束时间" style="ellipse;whiteSpace=wrap;html=1;align=center;fillColor=default;fontStyle=1;fontSize=24;" vertex="1" parent="1">
          <mxGeometry x="706" y="224.5" width="110" height="50.5" as="geometry" />
        </mxCell>
        <mxCell id="Z8kXA77HU9Zu7usbfkjC-199" value="" style="endArrow=none;html=1;rounded=0;fontSize=24;entryX=0.5;entryY=1;entryDx=0;entryDy=0;exitX=0.5;exitY=0;exitDx=0;exitDy=0;fontStyle=1" edge="1" parent="1" source="Z8kXA77HU9Zu7usbfkjC-196" target="Z8kXA77HU9Zu7usbfkjC-189">
          <mxGeometry width="50" height="50" relative="1" as="geometry">
            <mxPoint x="1366" y="385.5" as="sourcePoint" />
            <mxPoint x="1416" y="335.5" as="targetPoint" />
          </mxGeometry>
        </mxCell>
        <mxCell id="Z8kXA77HU9Zu7usbfkjC-200" value="" style="endArrow=none;html=1;rounded=0;fontSize=24;exitX=0.5;exitY=1;exitDx=0;exitDy=0;fontStyle=1" edge="1" parent="1" source="Z8kXA77HU9Zu7usbfkjC-189" target="Z8kXA77HU9Zu7usbfkjC-194">
          <mxGeometry width="50" height="50" relative="1" as="geometry">
            <mxPoint x="1366" y="385.5" as="sourcePoint" />
            <mxPoint x="1416" y="335.5" as="targetPoint" />
          </mxGeometry>
        </mxCell>
        <mxCell id="Z8kXA77HU9Zu7usbfkjC-201" value="" style="endArrow=none;html=1;rounded=0;fontSize=24;entryX=0.5;entryY=1;entryDx=0;entryDy=0;fontStyle=1" edge="1" parent="1" source="Z8kXA77HU9Zu7usbfkjC-193" target="Z8kXA77HU9Zu7usbfkjC-189">
          <mxGeometry width="50" height="50" relative="1" as="geometry">
            <mxPoint x="1366" y="385.5" as="sourcePoint" />
            <mxPoint x="1416" y="335.5" as="targetPoint" />
          </mxGeometry>
        </mxCell>
        <mxCell id="Z8kXA77HU9Zu7usbfkjC-202" value="" style="endArrow=none;html=1;rounded=0;fontSize=24;entryX=0.5;entryY=1;entryDx=0;entryDy=0;fontStyle=1" edge="1" parent="1" source="Z8kXA77HU9Zu7usbfkjC-192" target="Z8kXA77HU9Zu7usbfkjC-189">
          <mxGeometry width="50" height="50" relative="1" as="geometry">
            <mxPoint x="1366" y="385.5" as="sourcePoint" />
            <mxPoint x="1416" y="335.5" as="targetPoint" />
          </mxGeometry>
        </mxCell>
        <mxCell id="Z8kXA77HU9Zu7usbfkjC-203" value="" style="endArrow=none;html=1;rounded=0;fontSize=24;entryX=0;entryY=0.75;entryDx=0;entryDy=0;fontStyle=1" edge="1" parent="1" source="Z8kXA77HU9Zu7usbfkjC-191" target="Z8kXA77HU9Zu7usbfkjC-189">
          <mxGeometry width="50" height="50" relative="1" as="geometry">
            <mxPoint x="1366" y="385.5" as="sourcePoint" />
            <mxPoint x="1416" y="335.5" as="targetPoint" />
          </mxGeometry>
        </mxCell>
        <mxCell id="Z8kXA77HU9Zu7usbfkjC-204" value="" style="endArrow=none;html=1;rounded=0;fontSize=24;entryX=0;entryY=0.5;entryDx=0;entryDy=0;fontStyle=1;exitX=1;exitY=0.5;exitDx=0;exitDy=0;" edge="1" parent="1" source="Z8kXA77HU9Zu7usbfkjC-198" target="Z8kXA77HU9Zu7usbfkjC-189">
          <mxGeometry width="50" height="50" relative="1" as="geometry">
            <mxPoint x="1366" y="385.5" as="sourcePoint" />
            <mxPoint x="1416" y="335.5" as="targetPoint" />
          </mxGeometry>
        </mxCell>
        <mxCell id="Z8kXA77HU9Zu7usbfkjC-205" value="" style="endArrow=none;html=1;rounded=0;fontSize=24;exitX=0.398;exitY=0.008;exitDx=0;exitDy=0;entryX=0.5;entryY=1;entryDx=0;entryDy=0;fontStyle=1;exitPerimeter=0;" edge="1" parent="1" source="Z8kXA77HU9Zu7usbfkjC-189" target="Z8kXA77HU9Zu7usbfkjC-195">
          <mxGeometry width="50" height="50" relative="1" as="geometry">
            <mxPoint x="1366" y="385.5" as="sourcePoint" />
            <mxPoint x="1416" y="335.5" as="targetPoint" />
          </mxGeometry>
        </mxCell>
        <mxCell id="Z8kXA77HU9Zu7usbfkjC-206" value="" style="endArrow=none;html=1;rounded=0;fontSize=24;entryX=0.385;entryY=0.008;entryDx=0;entryDy=0;fontStyle=1;entryPerimeter=0;" edge="1" parent="1" source="Z8kXA77HU9Zu7usbfkjC-197" target="Z8kXA77HU9Zu7usbfkjC-189">
          <mxGeometry width="50" height="50" relative="1" as="geometry">
            <mxPoint x="1366" y="385.5" as="sourcePoint" />
            <mxPoint x="1416" y="335.5" as="targetPoint" />
          </mxGeometry>
        </mxCell>
        <mxCell id="Z8kXA77HU9Zu7usbfkjC-207" value="" style="endArrow=none;html=1;rounded=0;fontSize=24;entryX=0.424;entryY=0.045;entryDx=0;entryDy=0;exitX=0.5;exitY=1;exitDx=0;exitDy=0;fontStyle=1;entryPerimeter=0;" edge="1" parent="1" source="Z8kXA77HU9Zu7usbfkjC-190" target="Z8kXA77HU9Zu7usbfkjC-189">
          <mxGeometry width="50" height="50" relative="1" as="geometry">
            <mxPoint x="762.0000000000005" y="321.5000000000018" as="sourcePoint" />
            <mxPoint x="1416" y="335.5" as="targetPoint" />
          </mxGeometry>
        </mxCell>
        <mxCell id="Z8kXA77HU9Zu7usbfkjC-208" value="状态" style="ellipse;whiteSpace=wrap;html=1;align=center;fillColor=default;fontStyle=1;fontSize=24;" vertex="1" parent="1">
          <mxGeometry x="960" y="340" width="84" height="28" as="geometry" />
        </mxCell>
        <mxCell id="Z8kXA77HU9Zu7usbfkjC-209" value="&lt;font style=&quot;font-size: 24px&quot;&gt;&lt;b&gt;接收人&lt;/b&gt;&lt;/font&gt;" style="ellipse;whiteSpace=wrap;html=1;align=center;fillColor=default;" vertex="1" parent="1">
          <mxGeometry x="1002.5" y="307.5" width="84" height="28" as="geometry" />
        </mxCell>
        <mxCell id="Z8kXA77HU9Zu7usbfkjC-210" value="" style="endArrow=none;html=1;rounded=0;fontSize=24;exitX=0.5;exitY=1;exitDx=0;exitDy=0;entryX=0.408;entryY=0.045;entryDx=0;entryDy=0;fontStyle=1;entryPerimeter=0;" edge="1" parent="1" source="Z8kXA77HU9Zu7usbfkjC-189" target="Z8kXA77HU9Zu7usbfkjC-208">
          <mxGeometry width="50" height="50" relative="1" as="geometry">
            <mxPoint x="940" y="297" as="sourcePoint" />
            <mxPoint x="968" y="361" as="targetPoint" />
          </mxGeometry>
        </mxCell>
        <mxCell id="Z8kXA77HU9Zu7usbfkjC-211" value="" style="endArrow=none;html=1;rounded=0;fontSize=24;exitX=0.5;exitY=1;exitDx=0;exitDy=0;entryX=0.5;entryY=0;entryDx=0;entryDy=0;fontStyle=1" edge="1" parent="1" source="Z8kXA77HU9Zu7usbfkjC-189" target="Z8kXA77HU9Zu7usbfkjC-209">
          <mxGeometry width="50" height="50" relative="1" as="geometry">
            <mxPoint x="918" y="411" as="sourcePoint" />
            <mxPoint x="968" y="361" as="targetPoint" />
          </mxGeometry>
        </mxCell>
        <mxCell id="Z8kXA77HU9Zu7usbfkjC-212" value="" style="endArrow=none;html=1;rounded=0;fontSize=18;exitX=1;exitY=0.5;exitDx=0;exitDy=0;entryX=0;entryY=0.5;entryDx=0;entryDy=0;" edge="1" parent="1" source="Z8kXA77HU9Zu7usbfkjC-189" target="Z8kXA77HU9Zu7usbfkjC-213">
          <mxGeometry width="50" height="50" relative="1" as="geometry">
            <mxPoint x="1174" y="398" as="sourcePoint" />
            <mxPoint x="1169" y="267.5000000000018" as="targetPoint" />
          </mxGeometry>
        </mxCell>
        <mxCell id="Z8kXA77HU9Zu7usbfkjC-213" value="&lt;font style=&quot;font-size: 24px&quot;&gt;&lt;b&gt;发布&lt;/b&gt;&lt;/font&gt;" style="shape=rhombus;perimeter=rhombusPerimeter;whiteSpace=wrap;html=1;align=center;fontSize=18;fillColor=default;" vertex="1" parent="1">
          <mxGeometry x="1165" y="237.5" width="120" height="60" as="geometry" />
        </mxCell>
        <mxCell id="Z8kXA77HU9Zu7usbfkjC-214" value="" style="endArrow=none;html=1;rounded=0;fontSize=18;entryX=1;entryY=0.5;entryDx=0;entryDy=0;exitX=0.5;exitY=0;exitDx=0;exitDy=0;" edge="1" parent="1" source="Z8kXA77HU9Zu7usbfkjC-90" target="Z8kXA77HU9Zu7usbfkjC-213">
          <mxGeometry width="50" height="50" relative="1" as="geometry">
            <mxPoint x="1122" y="626" as="sourcePoint" />
            <mxPoint x="1172" y="576" as="targetPoint" />
          </mxGeometry>
        </mxCell>
        <mxCell id="Z8kXA77HU9Zu7usbfkjC-215" value="&lt;font style=&quot;font-size: 24px;&quot;&gt;n&lt;/font&gt;" style="text;strokeColor=none;fillColor=none;html=1;fontSize=24;fontStyle=1;verticalAlign=middle;align=center;" vertex="1" parent="1">
          <mxGeometry x="1000" y="235" width="100" height="40" as="geometry" />
        </mxCell>
        <mxCell id="Z8kXA77HU9Zu7usbfkjC-216" value="&lt;font style=&quot;font-size: 24px&quot;&gt;1&lt;/font&gt;" style="text;strokeColor=none;fillColor=none;html=1;fontSize=24;fontStyle=1;verticalAlign=middle;align=center;" vertex="1" parent="1">
          <mxGeometry x="1020.5" y="505" width="100" height="40" as="geometry" />
        </mxCell>
        <mxCell id="Z8kXA77HU9Zu7usbfkjC-218" value="&lt;font style=&quot;font-size: 24px&quot;&gt;&lt;b&gt;接收&lt;/b&gt;&lt;/font&gt;" style="shape=rhombus;perimeter=rhombusPerimeter;whiteSpace=wrap;html=1;align=center;fontSize=18;fillColor=default;" vertex="1" parent="1">
          <mxGeometry x="1086.5" y="11" width="120" height="60" as="geometry" />
        </mxCell>
        <mxCell id="Z8kXA77HU9Zu7usbfkjC-219" value="" style="endArrow=none;html=1;rounded=0;fontSize=18;entryX=1;entryY=0.5;entryDx=0;entryDy=0;exitX=0.5;exitY=1;exitDx=0;exitDy=0;" edge="1" parent="1" source="Z8kXA77HU9Zu7usbfkjC-218" target="Z8kXA77HU9Zu7usbfkjC-189">
          <mxGeometry width="50" height="50" relative="1" as="geometry">
            <mxPoint x="1201" y="603.25" as="sourcePoint" />
            <mxPoint x="1251" y="553.25" as="targetPoint" />
          </mxGeometry>
        </mxCell>
        <mxCell id="Z8kXA77HU9Zu7usbfkjC-220" value="&lt;font style=&quot;font-size: 24px ; font-weight: normal&quot;&gt;1&lt;/font&gt;" style="text;strokeColor=none;fillColor=none;html=1;fontSize=24;fontStyle=1;verticalAlign=middle;align=center;" vertex="1" parent="1">
          <mxGeometry x="993.5" y="122.5" width="100" height="40" as="geometry" />
        </mxCell>
        <mxCell id="Z8kXA77HU9Zu7usbfkjC-221" value="&lt;font style=&quot;font-size: 24px&quot;&gt;&lt;b&gt;考勤&lt;/b&gt;&lt;/font&gt;" style="whiteSpace=wrap;html=1;align=center;" vertex="1" parent="1">
          <mxGeometry x="1469" y="251" width="96" height="33" as="geometry" />
        </mxCell>
        <mxCell id="Z8kXA77HU9Zu7usbfkjC-223" value="&lt;font style=&quot;font-size: 24px&quot;&gt;&lt;b&gt;打卡ip&lt;/b&gt;&lt;/font&gt;" style="ellipse;whiteSpace=wrap;html=1;align=center;fillColor=default;" vertex="1" parent="1">
          <mxGeometry x="1587" y="297.5" width="86" height="29" as="geometry" />
        </mxCell>
        <mxCell id="Z8kXA77HU9Zu7usbfkjC-224" value="&lt;font style=&quot;font-size: 24px&quot;&gt;&lt;b&gt;状态&lt;/b&gt;&lt;/font&gt;" style="ellipse;whiteSpace=wrap;html=1;align=center;fillColor=default;" vertex="1" parent="1">
          <mxGeometry x="1580" y="254" width="88" height="27" as="geometry" />
        </mxCell>
        <mxCell id="Z8kXA77HU9Zu7usbfkjC-227" value="&lt;font style=&quot;font-size: 24px&quot;&gt;&lt;b&gt;用户id&lt;/b&gt;&lt;/font&gt;" style="ellipse;whiteSpace=wrap;html=1;align=center;fillColor=default;" vertex="1" parent="1">
          <mxGeometry x="1371" y="288" width="87" height="29" as="geometry" />
        </mxCell>
        <mxCell id="Z8kXA77HU9Zu7usbfkjC-229" value="&lt;font style=&quot;font-size: 24px&quot;&gt;&lt;b&gt;打卡时间&lt;/b&gt;&lt;/font&gt;" style="ellipse;whiteSpace=wrap;html=1;align=center;fillColor=default;" vertex="1" parent="1">
          <mxGeometry x="1533" y="335.5" width="112" height="34" as="geometry" />
        </mxCell>
        <mxCell id="Z8kXA77HU9Zu7usbfkjC-233" value="" style="endArrow=none;html=1;rounded=0;fontSize=18;entryX=1;entryY=0.5;entryDx=0;entryDy=0;exitX=0;exitY=0.5;exitDx=0;exitDy=0;" edge="1" parent="1" source="Z8kXA77HU9Zu7usbfkjC-224" target="Z8kXA77HU9Zu7usbfkjC-221">
          <mxGeometry width="50" height="50" relative="1" as="geometry">
            <mxPoint x="1716.548671487848" y="487.2764393714697" as="sourcePoint" />
            <mxPoint x="2213" y="470.75" as="targetPoint" />
          </mxGeometry>
        </mxCell>
        <mxCell id="Z8kXA77HU9Zu7usbfkjC-234" value="" style="endArrow=none;html=1;rounded=0;fontSize=18;entryX=0.5;entryY=1;entryDx=0;entryDy=0;" edge="1" parent="1" source="Z8kXA77HU9Zu7usbfkjC-223" target="Z8kXA77HU9Zu7usbfkjC-221">
          <mxGeometry width="50" height="50" relative="1" as="geometry">
            <mxPoint x="2163" y="520.75" as="sourcePoint" />
            <mxPoint x="2213" y="470.75" as="targetPoint" />
          </mxGeometry>
        </mxCell>
        <mxCell id="Z8kXA77HU9Zu7usbfkjC-235" value="" style="endArrow=none;html=1;rounded=0;fontSize=18;entryX=0.5;entryY=1;entryDx=0;entryDy=0;" edge="1" parent="1" source="Z8kXA77HU9Zu7usbfkjC-229" target="Z8kXA77HU9Zu7usbfkjC-221">
          <mxGeometry width="50" height="50" relative="1" as="geometry">
            <mxPoint x="2163" y="520.75" as="sourcePoint" />
            <mxPoint x="2213" y="470.75" as="targetPoint" />
          </mxGeometry>
        </mxCell>
        <mxCell id="Z8kXA77HU9Zu7usbfkjC-236" value="" style="endArrow=none;html=1;rounded=0;fontSize=18;exitX=0;exitY=0.5;exitDx=0;exitDy=0;" edge="1" parent="1" source="Z8kXA77HU9Zu7usbfkjC-221" target="Z8kXA77HU9Zu7usbfkjC-227">
          <mxGeometry width="50" height="50" relative="1" as="geometry">
            <mxPoint x="2163" y="520.75" as="sourcePoint" />
            <mxPoint x="1445" y="275" as="targetPoint" />
          </mxGeometry>
        </mxCell>
        <mxCell id="Z8kXA77HU9Zu7usbfkjC-239" value="&lt;font style=&quot;font-size: 24px&quot;&gt;&lt;b&gt;附件&lt;/b&gt;&lt;/font&gt;" style="whiteSpace=wrap;html=1;align=center;" vertex="1" parent="1">
          <mxGeometry x="1917.5" y="213.5" width="96" height="33" as="geometry" />
        </mxCell>
        <mxCell id="Z8kXA77HU9Zu7usbfkjC-240" value="&lt;font style=&quot;font-size: 24px&quot;&gt;&lt;b&gt;名称&lt;/b&gt;&lt;/font&gt;" style="ellipse;whiteSpace=wrap;html=1;align=center;fillColor=default;" vertex="1" parent="1">
          <mxGeometry x="1848.5" y="269" width="84.5" height="28.5" as="geometry" />
        </mxCell>
        <mxCell id="Z8kXA77HU9Zu7usbfkjC-242" value="&lt;font style=&quot;font-size: 24px&quot;&gt;&lt;b&gt;上传时间&lt;/b&gt;&lt;/font&gt;" style="ellipse;whiteSpace=wrap;html=1;align=center;fillColor=default;" vertex="1" parent="1">
          <mxGeometry x="1998" y="255" width="107" height="36" as="geometry" />
        </mxCell>
        <mxCell id="Z8kXA77HU9Zu7usbfkjC-244" value="&lt;font style=&quot;font-size: 24px&quot;&gt;&lt;b&gt;类型&lt;/b&gt;&lt;/font&gt;" style="ellipse;whiteSpace=wrap;html=1;align=center;fillColor=default;" vertex="1" parent="1">
          <mxGeometry x="1989.5" y="144" width="91" height="29" as="geometry" />
        </mxCell>
        <mxCell id="Z8kXA77HU9Zu7usbfkjC-245" value="&lt;font style=&quot;font-size: 24px&quot;&gt;&lt;b&gt;用户id&lt;/b&gt;&lt;/font&gt;" style="ellipse;whiteSpace=wrap;html=1;align=center;fillColor=default;" vertex="1" parent="1">
          <mxGeometry x="2042.5" y="173.5" width="87" height="29" as="geometry" />
        </mxCell>
        <mxCell id="Z8kXA77HU9Zu7usbfkjC-246" value="&lt;font style=&quot;font-size: 24px&quot;&gt;&lt;b&gt;路径&lt;/b&gt;&lt;/font&gt;" style="ellipse;whiteSpace=wrap;html=1;align=center;fillColor=default;" vertex="1" parent="1">
          <mxGeometry x="1897" y="145" width="87" height="28" as="geometry" />
        </mxCell>
        <mxCell id="Z8kXA77HU9Zu7usbfkjC-247" value="&lt;font style=&quot;font-size: 24px&quot;&gt;&lt;b&gt;大小&lt;/b&gt;&lt;/font&gt;" style="ellipse;whiteSpace=wrap;html=1;align=center;fillColor=default;" vertex="1" parent="1">
          <mxGeometry x="2103" y="202.5" width="88" height="29" as="geometry" />
        </mxCell>
        <mxCell id="Z8kXA77HU9Zu7usbfkjC-248" value="" style="endArrow=none;html=1;rounded=0;fontSize=18;" edge="1" parent="1" source="Z8kXA77HU9Zu7usbfkjC-239" target="Z8kXA77HU9Zu7usbfkjC-244">
          <mxGeometry width="50" height="50" relative="1" as="geometry">
            <mxPoint x="2636" y="378" as="sourcePoint" />
            <mxPoint x="2686" y="328" as="targetPoint" />
          </mxGeometry>
        </mxCell>
        <mxCell id="Z8kXA77HU9Zu7usbfkjC-250" value="" style="endArrow=none;html=1;rounded=0;fontSize=18;entryX=0.5;entryY=1;entryDx=0;entryDy=0;" edge="1" parent="1" source="Z8kXA77HU9Zu7usbfkjC-242" target="Z8kXA77HU9Zu7usbfkjC-239">
          <mxGeometry width="50" height="50" relative="1" as="geometry">
            <mxPoint x="2636" y="378" as="sourcePoint" />
            <mxPoint x="2686" y="328" as="targetPoint" />
          </mxGeometry>
        </mxCell>
        <mxCell id="Z8kXA77HU9Zu7usbfkjC-252" value="" style="endArrow=none;html=1;rounded=0;fontSize=18;entryX=1;entryY=0.5;entryDx=0;entryDy=0;" edge="1" parent="1" source="Z8kXA77HU9Zu7usbfkjC-247" target="Z8kXA77HU9Zu7usbfkjC-239">
          <mxGeometry width="50" height="50" relative="1" as="geometry">
            <mxPoint x="2636" y="378" as="sourcePoint" />
            <mxPoint x="2176.5" y="273" as="targetPoint" />
          </mxGeometry>
        </mxCell>
        <mxCell id="Z8kXA77HU9Zu7usbfkjC-253" value="" style="endArrow=none;html=1;rounded=0;fontSize=18;exitX=1;exitY=0.5;exitDx=0;exitDy=0;entryX=0.408;entryY=1.06;entryDx=0;entryDy=0;entryPerimeter=0;" edge="1" parent="1" source="Z8kXA77HU9Zu7usbfkjC-239" target="Z8kXA77HU9Zu7usbfkjC-245">
          <mxGeometry width="50" height="50" relative="1" as="geometry">
            <mxPoint x="2636" y="378" as="sourcePoint" />
            <mxPoint x="2261.5" y="385" as="targetPoint" />
          </mxGeometry>
        </mxCell>
        <mxCell id="Z8kXA77HU9Zu7usbfkjC-254" value="" style="endArrow=none;html=1;rounded=0;fontSize=18;entryX=0.5;entryY=0;entryDx=0;entryDy=0;exitX=0.5;exitY=1;exitDx=0;exitDy=0;" edge="1" parent="1" source="Z8kXA77HU9Zu7usbfkjC-246" target="Z8kXA77HU9Zu7usbfkjC-239">
          <mxGeometry width="50" height="50" relative="1" as="geometry">
            <mxPoint x="2636" y="378" as="sourcePoint" />
            <mxPoint x="2686" y="328" as="targetPoint" />
          </mxGeometry>
        </mxCell>
        <mxCell id="Z8kXA77HU9Zu7usbfkjC-255" value="" style="endArrow=none;html=1;rounded=0;fontSize=18;exitX=0.607;exitY=0.079;exitDx=0;exitDy=0;entryX=0.5;entryY=1;entryDx=0;entryDy=0;exitPerimeter=0;" edge="1" parent="1" source="Z8kXA77HU9Zu7usbfkjC-240" target="Z8kXA77HU9Zu7usbfkjC-239">
          <mxGeometry width="50" height="50" relative="1" as="geometry">
            <mxPoint x="2636" y="378" as="sourcePoint" />
            <mxPoint x="2120.5" y="290" as="targetPoint" />
          </mxGeometry>
        </mxCell>
        <mxCell id="Z8kXA77HU9Zu7usbfkjC-257" value="&lt;font style=&quot;font-size: 24px&quot;&gt;&lt;b&gt;查看&lt;/b&gt;&lt;/font&gt;" style="shape=rhombus;perimeter=rhombusPerimeter;whiteSpace=wrap;html=1;align=center;fontSize=18;fillColor=default;" vertex="1" parent="1">
          <mxGeometry x="1462" y="384" width="96" height="49" as="geometry" />
        </mxCell>
        <mxCell id="Z8kXA77HU9Zu7usbfkjC-258" value="" style="endArrow=none;html=1;rounded=0;fontSize=18;exitX=1;exitY=0.5;exitDx=0;exitDy=0;entryX=0.5;entryY=1;entryDx=0;entryDy=0;" edge="1" parent="1" source="Z8kXA77HU9Zu7usbfkjC-90" target="Z8kXA77HU9Zu7usbfkjC-257">
          <mxGeometry width="50" height="50" relative="1" as="geometry">
            <mxPoint x="1369" y="621.5" as="sourcePoint" />
            <mxPoint x="1419" y="571.5" as="targetPoint" />
          </mxGeometry>
        </mxCell>
        <mxCell id="Z8kXA77HU9Zu7usbfkjC-259" value="&lt;font style=&quot;font-size: 24px ; font-weight: normal&quot;&gt;1&lt;/font&gt;" style="text;strokeColor=none;fillColor=none;html=1;fontSize=24;fontStyle=1;verticalAlign=middle;align=center;" vertex="1" parent="1">
          <mxGeometry x="1411" y="461" width="91" height="35" as="geometry" />
        </mxCell>
        <mxCell id="Z8kXA77HU9Zu7usbfkjC-261" value="" style="endArrow=none;html=1;rounded=0;fontSize=18;exitX=0.5;exitY=0;exitDx=0;exitDy=0;" edge="1" parent="1" source="Z8kXA77HU9Zu7usbfkjC-257" target="Z8kXA77HU9Zu7usbfkjC-221">
          <mxGeometry width="50" height="50" relative="1" as="geometry">
            <mxPoint x="1301" y="492.5" as="sourcePoint" />
            <mxPoint x="1351" y="442.5" as="targetPoint" />
          </mxGeometry>
        </mxCell>
        <mxCell id="Z8kXA77HU9Zu7usbfkjC-262" value="&lt;font style=&quot;font-size: 24px&quot;&gt;n&lt;/font&gt;" style="text;strokeColor=none;fillColor=none;html=1;fontSize=24;fontStyle=1;verticalAlign=middle;align=center;" vertex="1" parent="1">
          <mxGeometry x="1414" y="347.5" width="100" height="40" as="geometry" />
        </mxCell>
        <mxCell id="Z8kXA77HU9Zu7usbfkjC-263" value="&lt;font style=&quot;font-size: 24px&quot;&gt;&lt;b&gt;打卡&lt;/b&gt;&lt;/font&gt;" style="shape=rhombus;perimeter=rhombusPerimeter;whiteSpace=wrap;html=1;align=center;fontSize=18;fillColor=default;" vertex="1" parent="1">
          <mxGeometry x="1448" y="134.5" width="96" height="49" as="geometry" />
        </mxCell>
        <mxCell id="Z8kXA77HU9Zu7usbfkjC-264" value="" style="endArrow=none;html=1;rounded=0;fontSize=18;entryX=0.5;entryY=1;entryDx=0;entryDy=0;" edge="1" parent="1" source="Z8kXA77HU9Zu7usbfkjC-221" target="Z8kXA77HU9Zu7usbfkjC-263">
          <mxGeometry width="50" height="50" relative="1" as="geometry">
            <mxPoint x="1301" y="492.5" as="sourcePoint" />
            <mxPoint x="1351" y="442.5" as="targetPoint" />
          </mxGeometry>
        </mxCell>
        <mxCell id="Z8kXA77HU9Zu7usbfkjC-265" value="&lt;font style=&quot;font-size: 24px&quot;&gt;1&lt;/font&gt;" style="text;strokeColor=none;fillColor=none;html=1;fontSize=24;fontStyle=1;verticalAlign=middle;align=center;" vertex="1" parent="1">
          <mxGeometry x="1482.5" y="187" width="91" height="35" as="geometry" />
        </mxCell>
        <mxCell id="Z8kXA77HU9Zu7usbfkjC-266" value="&lt;font style=&quot;font-size: 24px&quot;&gt;&lt;b&gt;管理&lt;/b&gt;&lt;/font&gt;" style="shape=rhombus;perimeter=rhombusPerimeter;whiteSpace=wrap;html=1;align=center;fontSize=18;fillColor=default;" vertex="1" parent="1">
          <mxGeometry x="1697" y="529" width="113" height="57" as="geometry" />
        </mxCell>
        <mxCell id="Z8kXA77HU9Zu7usbfkjC-267" value="" style="endArrow=none;html=1;rounded=0;fontSize=18;entryX=0;entryY=0.5;entryDx=0;entryDy=0;exitX=1;exitY=0.5;exitDx=0;exitDy=0;" edge="1" parent="1" source="Z8kXA77HU9Zu7usbfkjC-90" target="Z8kXA77HU9Zu7usbfkjC-266">
          <mxGeometry width="50" height="50" relative="1" as="geometry">
            <mxPoint x="1254" y="662" as="sourcePoint" />
            <mxPoint x="1304" y="612" as="targetPoint" />
          </mxGeometry>
        </mxCell>
        <mxCell id="Z8kXA77HU9Zu7usbfkjC-268" value="&lt;font style=&quot;font-size: 24px&quot;&gt;1&lt;/font&gt;" style="text;strokeColor=none;fillColor=none;html=1;fontSize=24;fontStyle=1;verticalAlign=middle;align=center;" vertex="1" parent="1">
          <mxGeometry x="1543.5" y="517" width="91" height="35" as="geometry" />
        </mxCell>
        <mxCell id="Z8kXA77HU9Zu7usbfkjC-269" value="" style="endArrow=none;html=1;rounded=0;fontSize=18;entryX=1;entryY=0.5;entryDx=0;entryDy=0;exitX=0;exitY=0.5;exitDx=0;exitDy=0;" edge="1" parent="1" source="Z8kXA77HU9Zu7usbfkjC-270" target="Z8kXA77HU9Zu7usbfkjC-266">
          <mxGeometry width="50" height="50" relative="1" as="geometry">
            <mxPoint x="1949" y="477" as="sourcePoint" />
            <mxPoint x="1304" y="612" as="targetPoint" />
          </mxGeometry>
        </mxCell>
        <mxCell id="Z8kXA77HU9Zu7usbfkjC-270" value="&lt;font style=&quot;font-size: 24px&quot;&gt;&lt;b&gt;部门&lt;/b&gt;&lt;/font&gt;" style="whiteSpace=wrap;html=1;align=center;" vertex="1" parent="1">
          <mxGeometry x="2065" y="538.5" width="96" height="33" as="geometry" />
        </mxCell>
        <mxCell id="Z8kXA77HU9Zu7usbfkjC-272" value="&lt;font style=&quot;font-size: 24px&quot;&gt;&lt;b&gt;邮箱&lt;/b&gt;&lt;/font&gt;" style="ellipse;whiteSpace=wrap;html=1;align=center;fillColor=default;" vertex="1" parent="1">
          <mxGeometry x="2191" y="517" width="86" height="29" as="geometry" />
        </mxCell>
        <mxCell id="Z8kXA77HU9Zu7usbfkjC-273" value="&lt;font style=&quot;font-size: 24px&quot;&gt;&lt;b&gt;传真&lt;/b&gt;&lt;/font&gt;" style="ellipse;whiteSpace=wrap;html=1;align=center;fillColor=default;" vertex="1" parent="1">
          <mxGeometry x="2012.25" y="606" width="88" height="27" as="geometry" />
        </mxCell>
        <mxCell id="Z8kXA77HU9Zu7usbfkjC-274" value="&lt;font style=&quot;font-size: 24px&quot;&gt;&lt;b&gt;电话&lt;/b&gt;&lt;/font&gt;" style="ellipse;whiteSpace=wrap;html=1;align=center;fillColor=default;" vertex="1" parent="1">
          <mxGeometry x="2180" y="479" width="87" height="26" as="geometry" />
        </mxCell>
        <mxCell id="Z8kXA77HU9Zu7usbfkjC-276" value="&lt;font style=&quot;font-size: 24px&quot;&gt;&lt;b&gt;名称&lt;/b&gt;&lt;/font&gt;" style="ellipse;whiteSpace=wrap;html=1;align=center;fillColor=default;" vertex="1" parent="1">
          <mxGeometry x="2180" y="571.5" width="87" height="29" as="geometry" />
        </mxCell>
        <mxCell id="Z8kXA77HU9Zu7usbfkjC-278" value="&lt;font style=&quot;font-size: 24px&quot;&gt;&lt;b&gt;地址&lt;/b&gt;&lt;/font&gt;" style="ellipse;whiteSpace=wrap;html=1;align=center;fillColor=default;" vertex="1" parent="1">
          <mxGeometry x="2118" y="606" width="88" height="29" as="geometry" />
        </mxCell>
        <mxCell id="Z8kXA77HU9Zu7usbfkjC-280" value="" style="endArrow=none;html=1;rounded=0;fontSize=18;entryX=1;entryY=0;entryDx=0;entryDy=0;" edge="1" parent="1" source="Z8kXA77HU9Zu7usbfkjC-274" target="Z8kXA77HU9Zu7usbfkjC-270">
          <mxGeometry width="50" height="50" relative="1" as="geometry">
            <mxPoint x="2639" y="672.5" as="sourcePoint" />
            <mxPoint x="2689" y="622.5" as="targetPoint" />
          </mxGeometry>
        </mxCell>
        <mxCell id="Z8kXA77HU9Zu7usbfkjC-281" value="" style="endArrow=none;html=1;rounded=0;fontSize=18;entryX=0.5;entryY=1;entryDx=0;entryDy=0;" edge="1" parent="1" source="Z8kXA77HU9Zu7usbfkjC-273" target="Z8kXA77HU9Zu7usbfkjC-270">
          <mxGeometry width="50" height="50" relative="1" as="geometry">
            <mxPoint x="2639" y="672.5" as="sourcePoint" />
            <mxPoint x="2689" y="622.5" as="targetPoint" />
          </mxGeometry>
        </mxCell>
        <mxCell id="Z8kXA77HU9Zu7usbfkjC-282" value="" style="endArrow=none;html=1;rounded=0;fontSize=18;entryX=1;entryY=0.5;entryDx=0;entryDy=0;" edge="1" parent="1" source="Z8kXA77HU9Zu7usbfkjC-272" target="Z8kXA77HU9Zu7usbfkjC-270">
          <mxGeometry width="50" height="50" relative="1" as="geometry">
            <mxPoint x="2639" y="672.5" as="sourcePoint" />
            <mxPoint x="2176" y="582" as="targetPoint" />
          </mxGeometry>
        </mxCell>
        <mxCell id="Z8kXA77HU9Zu7usbfkjC-283" value="" style="endArrow=none;html=1;rounded=0;fontSize=18;entryX=0.5;entryY=1;entryDx=0;entryDy=0;" edge="1" parent="1" source="Z8kXA77HU9Zu7usbfkjC-278" target="Z8kXA77HU9Zu7usbfkjC-270">
          <mxGeometry width="50" height="50" relative="1" as="geometry">
            <mxPoint x="2639" y="672.5" as="sourcePoint" />
            <mxPoint x="2689" y="622.5" as="targetPoint" />
          </mxGeometry>
        </mxCell>
        <mxCell id="Z8kXA77HU9Zu7usbfkjC-284" value="" style="endArrow=none;html=1;rounded=0;fontSize=18;exitX=1;exitY=0.5;exitDx=0;exitDy=0;" edge="1" parent="1" source="Z8kXA77HU9Zu7usbfkjC-270" target="Z8kXA77HU9Zu7usbfkjC-276">
          <mxGeometry width="50" height="50" relative="1" as="geometry">
            <mxPoint x="2639" y="672.5" as="sourcePoint" />
            <mxPoint x="2689" y="622.5" as="targetPoint" />
          </mxGeometry>
        </mxCell>
        <mxCell id="Z8kXA77HU9Zu7usbfkjC-288" value="&lt;font style=&quot;font-size: 24px&quot;&gt;&lt;b&gt;职位&lt;/b&gt;&lt;/font&gt;" style="whiteSpace=wrap;html=1;align=center;" vertex="1" parent="1">
          <mxGeometry x="2003.5" y="359.25" width="96" height="33" as="geometry" />
        </mxCell>
        <mxCell id="Z8kXA77HU9Zu7usbfkjC-289" value="&lt;font style=&quot;font-size: 24px&quot;&gt;&lt;b&gt;部门id&lt;/b&gt;&lt;/font&gt;" style="ellipse;whiteSpace=wrap;html=1;align=center;fillColor=default;" vertex="1" parent="1">
          <mxGeometry x="2032.5" y="307.5" width="86" height="29" as="geometry" />
        </mxCell>
        <mxCell id="Z8kXA77HU9Zu7usbfkjC-291" value="&lt;font style=&quot;font-size: 24px&quot;&gt;&lt;b&gt;描述信息&lt;/b&gt;&lt;/font&gt;" style="ellipse;whiteSpace=wrap;html=1;align=center;fillColor=default;" vertex="1" parent="1">
          <mxGeometry x="2200.5" y="313" width="112.5" height="34.5" as="geometry" />
        </mxCell>
        <mxCell id="Z8kXA77HU9Zu7usbfkjC-292" value="&lt;font style=&quot;font-size: 24px&quot;&gt;&lt;b&gt;名称&lt;/b&gt;&lt;/font&gt;" style="ellipse;whiteSpace=wrap;html=1;align=center;fillColor=default;" vertex="1" parent="1">
          <mxGeometry x="2113.5" y="291" width="87" height="29" as="geometry" />
        </mxCell>
        <mxCell id="Z8kXA77HU9Zu7usbfkjC-294" value="" style="endArrow=none;html=1;rounded=0;fontSize=18;entryX=0.5;entryY=0;entryDx=0;entryDy=0;" edge="1" parent="1" source="Z8kXA77HU9Zu7usbfkjC-291" target="Z8kXA77HU9Zu7usbfkjC-288">
          <mxGeometry width="50" height="50" relative="1" as="geometry">
            <mxPoint x="2692" y="482" as="sourcePoint" />
            <mxPoint x="2742" y="432" as="targetPoint" />
          </mxGeometry>
        </mxCell>
        <mxCell id="Z8kXA77HU9Zu7usbfkjC-296" value="" style="endArrow=none;html=1;rounded=0;fontSize=18;entryX=0.5;entryY=0;entryDx=0;entryDy=0;exitX=0.5;exitY=1;exitDx=0;exitDy=0;" edge="1" parent="1" source="Z8kXA77HU9Zu7usbfkjC-289" target="Z8kXA77HU9Zu7usbfkjC-288">
          <mxGeometry width="50" height="50" relative="1" as="geometry">
            <mxPoint x="2312.000000000002" y="391.5" as="sourcePoint" />
            <mxPoint x="2229" y="391.5" as="targetPoint" />
          </mxGeometry>
        </mxCell>
        <mxCell id="Z8kXA77HU9Zu7usbfkjC-298" value="" style="endArrow=none;html=1;rounded=0;fontSize=18;exitX=0.5;exitY=0;exitDx=0;exitDy=0;entryX=0.5;entryY=1;entryDx=0;entryDy=0;" edge="1" parent="1" source="Z8kXA77HU9Zu7usbfkjC-288" target="Z8kXA77HU9Zu7usbfkjC-292">
          <mxGeometry width="50" height="50" relative="1" as="geometry">
            <mxPoint x="2692" y="482" as="sourcePoint" />
            <mxPoint x="2742" y="432" as="targetPoint" />
          </mxGeometry>
        </mxCell>
        <mxCell id="Z8kXA77HU9Zu7usbfkjC-304" value="&lt;font style=&quot;font-size: 24px&quot;&gt;&lt;b&gt;属于&lt;/b&gt;&lt;/font&gt;" style="shape=rhombus;perimeter=rhombusPerimeter;whiteSpace=wrap;html=1;align=center;fontSize=18;fillColor=default;" vertex="1" parent="1">
          <mxGeometry x="1745.5" y="417" width="103" height="50" as="geometry" />
        </mxCell>
        <mxCell id="Z8kXA77HU9Zu7usbfkjC-306" value="" style="endArrow=none;html=1;rounded=0;fontSize=18;entryX=0;entryY=0.5;entryDx=0;entryDy=0;exitX=1;exitY=0.5;exitDx=0;exitDy=0;" edge="1" parent="1" source="Z8kXA77HU9Zu7usbfkjC-304" target="Z8kXA77HU9Zu7usbfkjC-270">
          <mxGeometry width="50" height="50" relative="1" as="geometry">
            <mxPoint x="2029" y="655" as="sourcePoint" />
            <mxPoint x="2079" y="605" as="targetPoint" />
          </mxGeometry>
        </mxCell>
        <mxCell id="Z8kXA77HU9Zu7usbfkjC-307" value="&lt;font style=&quot;font-size: 24px ; font-weight: normal&quot;&gt;1&lt;/font&gt;" style="text;strokeColor=none;fillColor=none;html=1;fontSize=24;fontStyle=1;verticalAlign=middle;align=center;" vertex="1" parent="1">
          <mxGeometry x="1867.5" y="433" width="100" height="40" as="geometry" />
        </mxCell>
        <mxCell id="Z8kXA77HU9Zu7usbfkjC-308" value="&lt;font style=&quot;font-size: 24px&quot;&gt;&lt;b&gt;属于&lt;/b&gt;&lt;/font&gt;" style="shape=rhombus;perimeter=rhombusPerimeter;whiteSpace=wrap;html=1;align=center;fontSize=18;fillColor=default;" vertex="1" parent="1">
          <mxGeometry x="1809" y="320.75" width="103" height="50" as="geometry" />
        </mxCell>
        <mxCell id="Z8kXA77HU9Zu7usbfkjC-309" value="&lt;font style=&quot;font-size: 24px&quot;&gt;&lt;b&gt;属于&lt;/b&gt;&lt;/font&gt;" style="shape=rhombus;perimeter=rhombusPerimeter;whiteSpace=wrap;html=1;align=center;fontSize=18;fillColor=default;" vertex="1" parent="1">
          <mxGeometry x="2002" y="446" width="103" height="50" as="geometry" />
        </mxCell>
        <mxCell id="Z8kXA77HU9Zu7usbfkjC-310" value="" style="endArrow=none;html=1;rounded=0;fontSize=18;entryX=1;entryY=0.5;entryDx=0;entryDy=0;exitX=0;exitY=0.5;exitDx=0;exitDy=0;" edge="1" parent="1" source="Z8kXA77HU9Zu7usbfkjC-288" target="Z8kXA77HU9Zu7usbfkjC-308">
          <mxGeometry width="50" height="50" relative="1" as="geometry">
            <mxPoint x="1765" y="886" as="sourcePoint" />
            <mxPoint x="1815" y="836" as="targetPoint" />
          </mxGeometry>
        </mxCell>
        <mxCell id="Z8kXA77HU9Zu7usbfkjC-311" value="" style="endArrow=none;html=1;rounded=0;fontSize=18;entryX=0.5;entryY=1;entryDx=0;entryDy=0;" edge="1" parent="1" source="Z8kXA77HU9Zu7usbfkjC-270" target="Z8kXA77HU9Zu7usbfkjC-309">
          <mxGeometry width="50" height="50" relative="1" as="geometry">
            <mxPoint x="1765" y="886" as="sourcePoint" />
            <mxPoint x="1815" y="836" as="targetPoint" />
          </mxGeometry>
        </mxCell>
        <mxCell id="Z8kXA77HU9Zu7usbfkjC-312" value="" style="endArrow=none;html=1;rounded=0;fontSize=18;entryX=0.5;entryY=1;entryDx=0;entryDy=0;exitX=0.5;exitY=0;exitDx=0;exitDy=0;" edge="1" parent="1" source="Z8kXA77HU9Zu7usbfkjC-309" target="Z8kXA77HU9Zu7usbfkjC-288">
          <mxGeometry width="50" height="50" relative="1" as="geometry">
            <mxPoint x="1765" y="886" as="sourcePoint" />
            <mxPoint x="1815" y="836" as="targetPoint" />
          </mxGeometry>
        </mxCell>
        <mxCell id="Z8kXA77HU9Zu7usbfkjC-313" value="&lt;font style=&quot;font-size: 24px ; font-weight: normal&quot;&gt;1&lt;/font&gt;" style="text;strokeColor=none;fillColor=none;html=1;fontSize=24;fontStyle=1;verticalAlign=middle;align=center;" vertex="1" parent="1">
          <mxGeometry x="2075.5" y="477" width="100" height="40" as="geometry" />
        </mxCell>
        <mxCell id="Z8kXA77HU9Zu7usbfkjC-314" value="&lt;font style=&quot;font-size: 24px&quot;&gt;n&lt;/font&gt;" style="text;strokeColor=none;fillColor=none;html=1;fontSize=24;fontStyle=1;verticalAlign=middle;align=center;" vertex="1" parent="1">
          <mxGeometry x="2026.5" y="392.25" width="100" height="40" as="geometry" />
        </mxCell>
        <mxCell id="Z8kXA77HU9Zu7usbfkjC-315" value="&lt;font style=&quot;font-size: 24px ; font-weight: normal&quot;&gt;1&lt;/font&gt;" style="text;strokeColor=none;fillColor=none;html=1;fontSize=24;fontStyle=1;verticalAlign=middle;align=center;" vertex="1" parent="1">
          <mxGeometry x="1923.5" y="317" width="100" height="40" as="geometry" />
        </mxCell>
        <mxCell id="Z8kXA77HU9Zu7usbfkjC-316" value="&lt;font style=&quot;font-size: 24px&quot;&gt;&lt;b&gt;讨论区&lt;/b&gt;&lt;/font&gt;" style="whiteSpace=wrap;html=1;align=center;" vertex="1" parent="1">
          <mxGeometry x="637" y="-9" width="96" height="33" as="geometry" />
        </mxCell>
        <mxCell id="Z8kXA77HU9Zu7usbfkjC-317" value="&lt;font style=&quot;font-size: 24px&quot;&gt;&lt;b&gt;创建时间&lt;/b&gt;&lt;/font&gt;" style="ellipse;whiteSpace=wrap;html=1;align=center;fillColor=default;" vertex="1" parent="1">
          <mxGeometry x="478" y="-13" width="107.5" height="32" as="geometry" />
        </mxCell>
        <mxCell id="Z8kXA77HU9Zu7usbfkjC-318" value="&lt;font style=&quot;font-size: 24px&quot;&gt;&lt;b&gt;内容&lt;/b&gt;&lt;/font&gt;" style="ellipse;whiteSpace=wrap;html=1;align=center;fillColor=default;" vertex="1" parent="1">
          <mxGeometry x="618" y="95.5" width="88" height="27" as="geometry" />
        </mxCell>
        <mxCell id="Z8kXA77HU9Zu7usbfkjC-319" value="&lt;font style=&quot;font-size: 24px&quot;&gt;&lt;b&gt;附件&lt;/b&gt;&lt;/font&gt;" style="ellipse;whiteSpace=wrap;html=1;align=center;fillColor=default;" vertex="1" parent="1">
          <mxGeometry x="688" y="54" width="87" height="26" as="geometry" />
        </mxCell>
        <mxCell id="Z8kXA77HU9Zu7usbfkjC-320" value="&lt;font style=&quot;font-size: 24px&quot;&gt;&lt;b&gt;类型&lt;/b&gt;&lt;/font&gt;" style="ellipse;whiteSpace=wrap;html=1;align=center;fillColor=default;" vertex="1" parent="1">
          <mxGeometry x="503" y="-48.5" width="91" height="29" as="geometry" />
        </mxCell>
        <mxCell id="Z8kXA77HU9Zu7usbfkjC-321" value="&lt;font style=&quot;font-size: 24px&quot;&gt;&lt;b&gt;用户id&lt;/b&gt;&lt;/font&gt;" style="ellipse;whiteSpace=wrap;html=1;align=center;fillColor=default;" vertex="1" parent="1">
          <mxGeometry x="478" y="68" width="87" height="29" as="geometry" />
        </mxCell>
        <mxCell id="Z8kXA77HU9Zu7usbfkjC-322" value="&lt;font style=&quot;font-size: 24px&quot;&gt;&lt;b&gt;标题&lt;/b&gt;&lt;/font&gt;" style="ellipse;whiteSpace=wrap;html=1;align=center;fillColor=default;" vertex="1" parent="1">
          <mxGeometry x="482" y="25" width="87" height="28" as="geometry" />
        </mxCell>
        <mxCell id="Z8kXA77HU9Zu7usbfkjC-323" value="&lt;font style=&quot;font-size: 24px&quot;&gt;&lt;b&gt;参与人数&lt;/b&gt;&lt;/font&gt;" style="ellipse;whiteSpace=wrap;html=1;align=center;fillColor=default;" vertex="1" parent="1">
          <mxGeometry x="565" y="51" width="102" height="34" as="geometry" />
        </mxCell>
        <mxCell id="Z8kXA77HU9Zu7usbfkjC-324" value="" style="endArrow=none;html=1;rounded=0;fontSize=18;exitX=0;exitY=0.5;exitDx=0;exitDy=0;" edge="1" parent="1" source="Z8kXA77HU9Zu7usbfkjC-316" target="Z8kXA77HU9Zu7usbfkjC-320">
          <mxGeometry width="50" height="50" relative="1" as="geometry">
            <mxPoint x="1109" y="142.5" as="sourcePoint" />
            <mxPoint x="1159" y="92.5" as="targetPoint" />
          </mxGeometry>
        </mxCell>
        <mxCell id="Z8kXA77HU9Zu7usbfkjC-325" value="" style="endArrow=none;html=1;rounded=0;fontSize=18;entryX=0.5;entryY=1;entryDx=0;entryDy=0;" edge="1" parent="1" source="Z8kXA77HU9Zu7usbfkjC-319" target="Z8kXA77HU9Zu7usbfkjC-316">
          <mxGeometry width="50" height="50" relative="1" as="geometry">
            <mxPoint x="1109" y="142.5" as="sourcePoint" />
            <mxPoint x="1159" y="92.5" as="targetPoint" />
          </mxGeometry>
        </mxCell>
        <mxCell id="Z8kXA77HU9Zu7usbfkjC-326" value="" style="endArrow=none;html=1;rounded=0;fontSize=18;" edge="1" parent="1" source="Z8kXA77HU9Zu7usbfkjC-318" target="Z8kXA77HU9Zu7usbfkjC-316">
          <mxGeometry width="50" height="50" relative="1" as="geometry">
            <mxPoint x="1109" y="142.5" as="sourcePoint" />
            <mxPoint x="1159" y="92.5" as="targetPoint" />
          </mxGeometry>
        </mxCell>
        <mxCell id="Z8kXA77HU9Zu7usbfkjC-328" value="" style="endArrow=none;html=1;rounded=0;fontSize=18;entryX=0.5;entryY=1;entryDx=0;entryDy=0;exitX=0.5;exitY=0;exitDx=0;exitDy=0;" edge="1" parent="1" source="Z8kXA77HU9Zu7usbfkjC-323" target="Z8kXA77HU9Zu7usbfkjC-316">
          <mxGeometry width="50" height="50" relative="1" as="geometry">
            <mxPoint x="1109" y="142.5" as="sourcePoint" />
            <mxPoint x="1159" y="92.5" as="targetPoint" />
          </mxGeometry>
        </mxCell>
        <mxCell id="Z8kXA77HU9Zu7usbfkjC-329" value="" style="endArrow=none;html=1;rounded=0;fontSize=18;exitX=0;exitY=0.5;exitDx=0;exitDy=0;entryX=0.782;entryY=0.034;entryDx=0;entryDy=0;entryPerimeter=0;" edge="1" parent="1" source="Z8kXA77HU9Zu7usbfkjC-316" target="Z8kXA77HU9Zu7usbfkjC-321">
          <mxGeometry width="50" height="50" relative="1" as="geometry">
            <mxPoint x="1109" y="142.5" as="sourcePoint" />
            <mxPoint x="1159" y="92.5" as="targetPoint" />
          </mxGeometry>
        </mxCell>
        <mxCell id="Z8kXA77HU9Zu7usbfkjC-330" value="" style="endArrow=none;html=1;rounded=0;fontSize=18;exitX=1;exitY=0.5;exitDx=0;exitDy=0;entryX=0;entryY=0.5;entryDx=0;entryDy=0;" edge="1" parent="1" source="Z8kXA77HU9Zu7usbfkjC-322" target="Z8kXA77HU9Zu7usbfkjC-316">
          <mxGeometry width="50" height="50" relative="1" as="geometry">
            <mxPoint x="1109" y="142.5" as="sourcePoint" />
            <mxPoint x="599" y="64" as="targetPoint" />
          </mxGeometry>
        </mxCell>
        <mxCell id="Z8kXA77HU9Zu7usbfkjC-331" value="" style="endArrow=none;html=1;rounded=0;fontSize=18;entryX=0;entryY=0.5;entryDx=0;entryDy=0;exitX=1;exitY=0.5;exitDx=0;exitDy=0;" edge="1" parent="1" source="Z8kXA77HU9Zu7usbfkjC-317" target="Z8kXA77HU9Zu7usbfkjC-316">
          <mxGeometry width="50" height="50" relative="1" as="geometry">
            <mxPoint x="1109" y="142.5" as="sourcePoint" />
            <mxPoint x="1159" y="92.5" as="targetPoint" />
          </mxGeometry>
        </mxCell>
        <mxCell id="Z8kXA77HU9Zu7usbfkjC-333" value="&lt;font style=&quot;font-size: 24px&quot;&gt;&lt;b&gt;发起&lt;/b&gt;&lt;/font&gt;" style="shape=rhombus;perimeter=rhombusPerimeter;whiteSpace=wrap;html=1;align=center;fontSize=18;fillColor=default;" vertex="1" parent="1">
          <mxGeometry x="838" y="-20.5" width="107" height="51" as="geometry" />
        </mxCell>
        <mxCell id="Z8kXA77HU9Zu7usbfkjC-334" value="" style="endArrow=none;html=1;rounded=0;fontSize=18;entryX=1;entryY=0.5;entryDx=0;entryDy=0;exitX=0;exitY=0.5;exitDx=0;exitDy=0;" edge="1" parent="1" source="Z8kXA77HU9Zu7usbfkjC-333" target="Z8kXA77HU9Zu7usbfkjC-316">
          <mxGeometry width="50" height="50" relative="1" as="geometry">
            <mxPoint x="1085" y="163" as="sourcePoint" />
            <mxPoint x="1135" y="113" as="targetPoint" />
          </mxGeometry>
        </mxCell>
        <mxCell id="Z8kXA77HU9Zu7usbfkjC-335" value="&lt;font style=&quot;font-size: 24px&quot;&gt;n&lt;/font&gt;" style="text;strokeColor=none;fillColor=none;html=1;fontSize=24;fontStyle=1;verticalAlign=middle;align=center;" vertex="1" parent="1">
          <mxGeometry x="747" y="-32" width="100" height="40" as="geometry" />
        </mxCell>
        <mxCell id="Z8kXA77HU9Zu7usbfkjC-336" value="" style="endArrow=none;html=1;rounded=0;fontSize=18;exitX=1;exitY=0.5;exitDx=0;exitDy=0;entryX=0.5;entryY=1;entryDx=0;entryDy=0;" edge="1" parent="1" source="Z8kXA77HU9Zu7usbfkjC-333" target="Z8kXA77HU9Zu7usbfkjC-153">
          <mxGeometry width="50" height="50" relative="1" as="geometry">
            <mxPoint x="720" y="180" as="sourcePoint" />
            <mxPoint x="1327" y="-42" as="targetPoint" />
          </mxGeometry>
        </mxCell>
        <mxCell id="Z8kXA77HU9Zu7usbfkjC-337" value="&lt;font style=&quot;font-size: 24px ; font-weight: normal&quot;&gt;1&lt;/font&gt;" style="text;strokeColor=none;fillColor=none;html=1;fontSize=24;fontStyle=1;verticalAlign=middle;align=center;" vertex="1" parent="1">
          <mxGeometry x="964" y="-69" width="100" height="40" as="geometry" />
        </mxCell>
        <mxCell id="Z8kXA77HU9Zu7usbfkjC-338" value="&lt;font style=&quot;font-size: 24px&quot;&gt;&lt;b&gt;笔记&lt;/b&gt;&lt;/font&gt;" style="whiteSpace=wrap;html=1;align=center;" vertex="1" parent="1">
          <mxGeometry x="651" y="-236" width="96" height="33" as="geometry" />
        </mxCell>
        <mxCell id="Z8kXA77HU9Zu7usbfkjC-339" value="&lt;font style=&quot;font-size: 24px&quot;&gt;&lt;b&gt;创建时间&lt;/b&gt;&lt;/font&gt;" style="ellipse;whiteSpace=wrap;html=1;align=center;fillColor=default;" vertex="1" parent="1">
          <mxGeometry x="504" y="-255" width="100" height="40.5" as="geometry" />
        </mxCell>
        <mxCell id="Z8kXA77HU9Zu7usbfkjC-340" value="&lt;font style=&quot;font-size: 24px&quot;&gt;&lt;b&gt;用户id&lt;/b&gt;&lt;/font&gt;" style="ellipse;whiteSpace=wrap;html=1;align=center;fillColor=default;" vertex="1" parent="1">
          <mxGeometry x="572" y="-134" width="86" height="29" as="geometry" />
        </mxCell>
        <mxCell id="Z8kXA77HU9Zu7usbfkjC-342" value="&lt;font style=&quot;font-size: 24px&quot;&gt;&lt;b&gt;标题&lt;/b&gt;&lt;/font&gt;" style="ellipse;whiteSpace=wrap;html=1;align=center;fillColor=default;" vertex="1" parent="1">
          <mxGeometry x="651" y="-114.5" width="87" height="26" as="geometry" />
        </mxCell>
        <mxCell id="Z8kXA77HU9Zu7usbfkjC-343" value="&lt;font style=&quot;font-size: 24px&quot;&gt;&lt;b&gt;类型&lt;/b&gt;&lt;/font&gt;" style="ellipse;whiteSpace=wrap;html=1;align=center;fillColor=default;" vertex="1" parent="1">
          <mxGeometry x="712" y="-146.5" width="91" height="29" as="geometry" />
        </mxCell>
        <mxCell id="Z8kXA77HU9Zu7usbfkjC-344" value="&lt;font style=&quot;font-size: 24px&quot;&gt;&lt;b&gt;内容&lt;/b&gt;&lt;/font&gt;" style="ellipse;whiteSpace=wrap;html=1;align=center;fillColor=default;" vertex="1" parent="1">
          <mxGeometry x="496" y="-203" width="87" height="29" as="geometry" />
        </mxCell>
        <mxCell id="Z8kXA77HU9Zu7usbfkjC-346" value="&lt;font style=&quot;font-size: 24px&quot;&gt;&lt;b&gt;状态&lt;/b&gt;&lt;/font&gt;" style="ellipse;whiteSpace=wrap;html=1;align=center;fillColor=default;" vertex="1" parent="1">
          <mxGeometry x="524" y="-163" width="88" height="29.5" as="geometry" />
        </mxCell>
        <mxCell id="Z8kXA77HU9Zu7usbfkjC-347" value="" style="endArrow=none;html=1;rounded=0;fontSize=18;exitX=0.427;exitY=1.053;exitDx=0;exitDy=0;exitPerimeter=0;entryX=0.5;entryY=0;entryDx=0;entryDy=0;" edge="1" parent="1" source="Z8kXA77HU9Zu7usbfkjC-338" target="Z8kXA77HU9Zu7usbfkjC-343">
          <mxGeometry width="50" height="50" relative="1" as="geometry">
            <mxPoint x="652" y="-219.5" as="sourcePoint" />
            <mxPoint x="625" y="-120" as="targetPoint" />
          </mxGeometry>
        </mxCell>
        <mxCell id="Z8kXA77HU9Zu7usbfkjC-348" value="" style="endArrow=none;html=1;rounded=0;fontSize=18;entryX=0.417;entryY=1.03;entryDx=0;entryDy=0;exitX=0.5;exitY=0;exitDx=0;exitDy=0;entryPerimeter=0;" edge="1" parent="1" source="Z8kXA77HU9Zu7usbfkjC-342" target="Z8kXA77HU9Zu7usbfkjC-338">
          <mxGeometry width="50" height="50" relative="1" as="geometry">
            <mxPoint x="678" y="-119" as="sourcePoint" />
            <mxPoint x="1268" y="-150.5" as="targetPoint" />
          </mxGeometry>
        </mxCell>
        <mxCell id="Z8kXA77HU9Zu7usbfkjC-350" value="" style="endArrow=none;html=1;rounded=0;fontSize=18;entryX=0.401;entryY=1.053;entryDx=0;entryDy=0;entryPerimeter=0;" edge="1" parent="1" source="Z8kXA77HU9Zu7usbfkjC-340" target="Z8kXA77HU9Zu7usbfkjC-338">
          <mxGeometry width="50" height="50" relative="1" as="geometry">
            <mxPoint x="1218" y="-100.5" as="sourcePoint" />
            <mxPoint x="1268" y="-150.5" as="targetPoint" />
          </mxGeometry>
        </mxCell>
        <mxCell id="Z8kXA77HU9Zu7usbfkjC-351" value="" style="endArrow=none;html=1;rounded=0;fontSize=18;entryX=0;entryY=0.5;entryDx=0;entryDy=0;" edge="1" parent="1" source="Z8kXA77HU9Zu7usbfkjC-346" target="Z8kXA77HU9Zu7usbfkjC-338">
          <mxGeometry width="50" height="50" relative="1" as="geometry">
            <mxPoint x="1218" y="-100.5" as="sourcePoint" />
            <mxPoint x="1268" y="-150.5" as="targetPoint" />
          </mxGeometry>
        </mxCell>
        <mxCell id="Z8kXA77HU9Zu7usbfkjC-352" value="" style="endArrow=none;html=1;rounded=0;fontSize=18;exitX=0;exitY=0.5;exitDx=0;exitDy=0;entryX=1;entryY=0.5;entryDx=0;entryDy=0;" edge="1" parent="1" source="Z8kXA77HU9Zu7usbfkjC-338" target="Z8kXA77HU9Zu7usbfkjC-344">
          <mxGeometry width="50" height="50" relative="1" as="geometry">
            <mxPoint x="1218" y="-100.5" as="sourcePoint" />
            <mxPoint x="1268" y="-150.5" as="targetPoint" />
          </mxGeometry>
        </mxCell>
        <mxCell id="Z8kXA77HU9Zu7usbfkjC-354" value="" style="endArrow=none;html=1;rounded=0;fontSize=18;entryX=0;entryY=0.5;entryDx=0;entryDy=0;exitX=1;exitY=0.5;exitDx=0;exitDy=0;" edge="1" parent="1" source="Z8kXA77HU9Zu7usbfkjC-339" target="Z8kXA77HU9Zu7usbfkjC-338">
          <mxGeometry width="50" height="50" relative="1" as="geometry">
            <mxPoint x="1218" y="-100.5" as="sourcePoint" />
            <mxPoint x="1268" y="-150.5" as="targetPoint" />
          </mxGeometry>
        </mxCell>
        <mxCell id="Z8kXA77HU9Zu7usbfkjC-355" value="&lt;font style=&quot;font-size: 24px&quot;&gt;&lt;b&gt;分享&lt;/b&gt;&lt;/font&gt;" style="shape=rhombus;perimeter=rhombusPerimeter;whiteSpace=wrap;html=1;align=center;fontSize=18;fillColor=default;" vertex="1" parent="1">
          <mxGeometry x="813" y="-160" width="107" height="51" as="geometry" />
        </mxCell>
        <mxCell id="Z8kXA77HU9Zu7usbfkjC-356" value="" style="endArrow=none;html=1;rounded=0;fontSize=18;exitX=1;exitY=0.5;exitDx=0;exitDy=0;entryX=0;entryY=0.5;entryDx=0;entryDy=0;" edge="1" parent="1" source="Z8kXA77HU9Zu7usbfkjC-338" target="Z8kXA77HU9Zu7usbfkjC-355">
          <mxGeometry width="50" height="50" relative="1" as="geometry">
            <mxPoint x="1081" y="130.5" as="sourcePoint" />
            <mxPoint x="1131" y="80.5" as="targetPoint" />
          </mxGeometry>
        </mxCell>
        <mxCell id="Z8kXA77HU9Zu7usbfkjC-357" value="&lt;font style=&quot;font-size: 24px ; font-weight: normal&quot;&gt;n&lt;/font&gt;" style="text;strokeColor=none;fillColor=none;html=1;fontSize=24;fontStyle=1;verticalAlign=middle;align=center;" vertex="1" parent="1">
          <mxGeometry x="755" y="-203" width="100" height="40" as="geometry" />
        </mxCell>
        <mxCell id="Z8kXA77HU9Zu7usbfkjC-358" value="" style="endArrow=none;html=1;rounded=0;fontSize=18;exitX=1;exitY=0.5;exitDx=0;exitDy=0;entryX=0;entryY=0.5;entryDx=0;entryDy=0;" edge="1" parent="1" source="Z8kXA77HU9Zu7usbfkjC-355" target="Z8kXA77HU9Zu7usbfkjC-153">
          <mxGeometry width="50" height="50" relative="1" as="geometry">
            <mxPoint x="1074" y="167" as="sourcePoint" />
            <mxPoint x="1033" y="44" as="targetPoint" />
            <Array as="points" />
          </mxGeometry>
        </mxCell>
        <mxCell id="Z8kXA77HU9Zu7usbfkjC-359" value="&lt;font style=&quot;font-size: 24px&quot;&gt;1&lt;/font&gt;" style="text;strokeColor=none;fillColor=none;html=1;fontSize=24;fontStyle=1;verticalAlign=middle;align=center;" vertex="1" parent="1">
          <mxGeometry x="964" y="-183.5" width="100" height="40" as="geometry" />
        </mxCell>
        <mxCell id="Z8kXA77HU9Zu7usbfkjC-360" value="&lt;font style=&quot;font-size: 24px&quot;&gt;&lt;b&gt;邮件&lt;/b&gt;&lt;/font&gt;" style="whiteSpace=wrap;html=1;align=center;" vertex="1" parent="1">
          <mxGeometry x="1946.5" y="92" width="96" height="33" as="geometry" />
        </mxCell>
        <mxCell id="Z8kXA77HU9Zu7usbfkjC-361" value="&lt;font style=&quot;font-size: 24px&quot;&gt;&lt;b&gt;创建时间&lt;/b&gt;&lt;/font&gt;" style="ellipse;whiteSpace=wrap;html=1;align=center;fillColor=default;" vertex="1" parent="1">
          <mxGeometry x="1867.5" y="-28" width="106.5" height="36" as="geometry" />
        </mxCell>
        <mxCell id="Z8kXA77HU9Zu7usbfkjC-362" value="&lt;font style=&quot;font-size: 24px&quot;&gt;&lt;b&gt;用户id&lt;/b&gt;&lt;/font&gt;" style="ellipse;whiteSpace=wrap;html=1;align=center;fillColor=default;" vertex="1" parent="1">
          <mxGeometry x="2125" y="93.5" width="86" height="29" as="geometry" />
        </mxCell>
        <mxCell id="Z8kXA77HU9Zu7usbfkjC-363" value="&lt;font style=&quot;font-size: 24px&quot;&gt;&lt;b&gt;内容&lt;/b&gt;&lt;/font&gt;" style="ellipse;whiteSpace=wrap;html=1;align=center;fillColor=default;" vertex="1" parent="1">
          <mxGeometry x="2123" y="62" width="88" height="27" as="geometry" />
        </mxCell>
        <mxCell id="Z8kXA77HU9Zu7usbfkjC-364" value="&lt;font style=&quot;font-size: 24px&quot;&gt;&lt;b&gt;状态&lt;/b&gt;&lt;/font&gt;" style="ellipse;whiteSpace=wrap;html=1;align=center;fillColor=default;" vertex="1" parent="1">
          <mxGeometry x="2124" y="28" width="87" height="26" as="geometry" />
        </mxCell>
        <mxCell id="Z8kXA77HU9Zu7usbfkjC-365" value="&lt;font style=&quot;font-size: 24px&quot;&gt;&lt;b&gt;类型&lt;/b&gt;&lt;/font&gt;" style="ellipse;whiteSpace=wrap;html=1;align=center;fillColor=default;" vertex="1" parent="1">
          <mxGeometry x="1960.5" y="-1" width="91" height="29" as="geometry" />
        </mxCell>
        <mxCell id="Z8kXA77HU9Zu7usbfkjC-366" value="&lt;b&gt;&lt;font style=&quot;font-size: 24px&quot;&gt;标题&lt;/font&gt;&lt;/b&gt;" style="ellipse;whiteSpace=wrap;html=1;align=center;fillColor=default;" vertex="1" parent="1">
          <mxGeometry x="2065" y="6" width="87" height="29" as="geometry" />
        </mxCell>
        <mxCell id="Z8kXA77HU9Zu7usbfkjC-367" value="&lt;font style=&quot;font-size: 24px&quot;&gt;&lt;b&gt;附件&lt;/b&gt;&lt;/font&gt;" style="ellipse;whiteSpace=wrap;html=1;align=center;fillColor=default;" vertex="1" parent="1">
          <mxGeometry x="2042.5" y="-29" width="87" height="28" as="geometry" />
        </mxCell>
        <mxCell id="Z8kXA77HU9Zu7usbfkjC-368" value="&lt;font style=&quot;font-size: 24px&quot;&gt;&lt;b&gt;接收人&lt;/b&gt;&lt;/font&gt;" style="ellipse;whiteSpace=wrap;html=1;align=center;fillColor=default;" vertex="1" parent="1">
          <mxGeometry x="2111" y="129" width="88" height="29" as="geometry" />
        </mxCell>
        <mxCell id="Z8kXA77HU9Zu7usbfkjC-369" value="" style="endArrow=none;html=1;rounded=0;fontSize=18;exitX=0.5;exitY=0;exitDx=0;exitDy=0;entryX=0.5;entryY=1;entryDx=0;entryDy=0;" edge="1" parent="1" source="Z8kXA77HU9Zu7usbfkjC-360" target="Z8kXA77HU9Zu7usbfkjC-365">
          <mxGeometry width="50" height="50" relative="1" as="geometry">
            <mxPoint x="2503.5" y="218.75" as="sourcePoint" />
            <mxPoint x="2553.5" y="168.75" as="targetPoint" />
          </mxGeometry>
        </mxCell>
        <mxCell id="Z8kXA77HU9Zu7usbfkjC-370" value="" style="endArrow=none;html=1;rounded=0;fontSize=18;entryX=1;entryY=0.5;entryDx=0;entryDy=0;" edge="1" parent="1" source="Z8kXA77HU9Zu7usbfkjC-364" target="Z8kXA77HU9Zu7usbfkjC-360">
          <mxGeometry width="50" height="50" relative="1" as="geometry">
            <mxPoint x="2503.5" y="218.75" as="sourcePoint" />
            <mxPoint x="2553.5" y="168.75" as="targetPoint" />
          </mxGeometry>
        </mxCell>
        <mxCell id="Z8kXA77HU9Zu7usbfkjC-371" value="" style="endArrow=none;html=1;rounded=0;fontSize=18;entryX=1;entryY=0.5;entryDx=0;entryDy=0;" edge="1" parent="1" source="Z8kXA77HU9Zu7usbfkjC-363" target="Z8kXA77HU9Zu7usbfkjC-360">
          <mxGeometry width="50" height="50" relative="1" as="geometry">
            <mxPoint x="2503.5" y="218.75" as="sourcePoint" />
            <mxPoint x="2553.5" y="168.75" as="targetPoint" />
          </mxGeometry>
        </mxCell>
        <mxCell id="Z8kXA77HU9Zu7usbfkjC-372" value="" style="endArrow=none;html=1;rounded=0;fontSize=18;entryX=1;entryY=0.5;entryDx=0;entryDy=0;" edge="1" parent="1" source="Z8kXA77HU9Zu7usbfkjC-362" target="Z8kXA77HU9Zu7usbfkjC-360">
          <mxGeometry width="50" height="50" relative="1" as="geometry">
            <mxPoint x="2503.5" y="218.75" as="sourcePoint" />
            <mxPoint x="2553.5" y="168.75" as="targetPoint" />
          </mxGeometry>
        </mxCell>
        <mxCell id="Z8kXA77HU9Zu7usbfkjC-373" value="" style="endArrow=none;html=1;rounded=0;fontSize=18;" edge="1" parent="1" source="Z8kXA77HU9Zu7usbfkjC-368">
          <mxGeometry width="50" height="50" relative="1" as="geometry">
            <mxPoint x="2503.5" y="218.75" as="sourcePoint" />
            <mxPoint x="2043.5" y="109" as="targetPoint" />
          </mxGeometry>
        </mxCell>
        <mxCell id="Z8kXA77HU9Zu7usbfkjC-374" value="" style="endArrow=none;html=1;rounded=0;fontSize=18;exitX=1;exitY=0.5;exitDx=0;exitDy=0;entryX=0.5;entryY=1;entryDx=0;entryDy=0;" edge="1" parent="1" source="Z8kXA77HU9Zu7usbfkjC-360" target="Z8kXA77HU9Zu7usbfkjC-366">
          <mxGeometry width="50" height="50" relative="1" as="geometry">
            <mxPoint x="2503.5" y="218.75" as="sourcePoint" />
            <mxPoint x="2553.5" y="168.75" as="targetPoint" />
          </mxGeometry>
        </mxCell>
        <mxCell id="Z8kXA77HU9Zu7usbfkjC-375" value="" style="endArrow=none;html=1;rounded=0;fontSize=18;entryX=0.5;entryY=0;entryDx=0;entryDy=0;exitX=0.394;exitY=1.045;exitDx=0;exitDy=0;exitPerimeter=0;" edge="1" parent="1" source="Z8kXA77HU9Zu7usbfkjC-367" target="Z8kXA77HU9Zu7usbfkjC-360">
          <mxGeometry width="50" height="50" relative="1" as="geometry">
            <mxPoint x="2503.5" y="218.75" as="sourcePoint" />
            <mxPoint x="2553.5" y="168.75" as="targetPoint" />
          </mxGeometry>
        </mxCell>
        <mxCell id="Z8kXA77HU9Zu7usbfkjC-376" value="" style="endArrow=none;html=1;rounded=0;fontSize=18;entryX=0.5;entryY=0;entryDx=0;entryDy=0;exitX=0.5;exitY=1;exitDx=0;exitDy=0;" edge="1" parent="1" source="Z8kXA77HU9Zu7usbfkjC-361" target="Z8kXA77HU9Zu7usbfkjC-360">
          <mxGeometry width="50" height="50" relative="1" as="geometry">
            <mxPoint x="1995" y="18" as="sourcePoint" />
            <mxPoint x="2553.5" y="168.75" as="targetPoint" />
          </mxGeometry>
        </mxCell>
        <mxCell id="Z8kXA77HU9Zu7usbfkjC-379" value="&lt;font style=&quot;font-size: 24px&quot;&gt;&lt;b&gt;发送&lt;/b&gt;&lt;/font&gt;" style="shape=rhombus;perimeter=rhombusPerimeter;whiteSpace=wrap;html=1;align=center;fontSize=18;fillColor=default;" vertex="1" parent="1">
          <mxGeometry x="1697" y="-168.5" width="107" height="51" as="geometry" />
        </mxCell>
        <mxCell id="Z8kXA77HU9Zu7usbfkjC-380" value="" style="endArrow=none;html=1;rounded=0;fontSize=18;exitX=1;exitY=0.5;exitDx=0;exitDy=0;entryX=0;entryY=0.5;entryDx=0;entryDy=0;" edge="1" parent="1" source="Z8kXA77HU9Zu7usbfkjC-379" target="Z8kXA77HU9Zu7usbfkjC-384">
          <mxGeometry width="50" height="50" relative="1" as="geometry">
            <mxPoint x="1848" y="-312" as="sourcePoint" />
            <mxPoint x="2085" y="-216" as="targetPoint" />
          </mxGeometry>
        </mxCell>
        <mxCell id="Z8kXA77HU9Zu7usbfkjC-381" value="&lt;font style=&quot;font-size: 24px ; font-weight: normal&quot;&gt;n&lt;/font&gt;" style="text;strokeColor=none;fillColor=none;html=1;fontSize=24;fontStyle=1;verticalAlign=middle;align=center;" vertex="1" parent="1">
          <mxGeometry x="1824" y="-195" width="100" height="38.5" as="geometry" />
        </mxCell>
        <mxCell id="Z8kXA77HU9Zu7usbfkjC-382" value="" style="endArrow=none;html=1;rounded=0;fontSize=18;entryX=0;entryY=0.5;entryDx=0;entryDy=0;exitX=1;exitY=0.5;exitDx=0;exitDy=0;" edge="1" parent="1" source="Z8kXA77HU9Zu7usbfkjC-153" target="Z8kXA77HU9Zu7usbfkjC-379">
          <mxGeometry width="50" height="50" relative="1" as="geometry">
            <mxPoint x="1805" y="-55" as="sourcePoint" />
            <mxPoint x="1724" y="-252" as="targetPoint" />
          </mxGeometry>
        </mxCell>
        <mxCell id="Z8kXA77HU9Zu7usbfkjC-384" value="&lt;font style=&quot;font-size: 24px&quot;&gt;&lt;b&gt;工作计划&lt;/b&gt;&lt;/font&gt;" style="whiteSpace=wrap;html=1;align=center;" vertex="1" parent="1">
          <mxGeometry x="1927" y="-180" width="108.5" height="40" as="geometry" />
        </mxCell>
        <mxCell id="Z8kXA77HU9Zu7usbfkjC-385" value="&lt;font style=&quot;font-size: 24px&quot;&gt;&lt;b&gt;创建时间&lt;/b&gt;&lt;/font&gt;" style="ellipse;whiteSpace=wrap;html=1;align=center;fillColor=default;" vertex="1" parent="1">
          <mxGeometry x="1901.75" y="-271.13" width="117" height="38" as="geometry" />
        </mxCell>
        <mxCell id="Z8kXA77HU9Zu7usbfkjC-386" value="&lt;font style=&quot;font-size: 24px&quot;&gt;&lt;b&gt;类型&lt;/b&gt;&lt;/font&gt;" style="ellipse;whiteSpace=wrap;html=1;align=center;fillColor=default;" vertex="1" parent="1">
          <mxGeometry x="2027.5" y="-103" width="86" height="29" as="geometry" />
        </mxCell>
        <mxCell id="Z8kXA77HU9Zu7usbfkjC-387" value="&lt;font style=&quot;font-size: 24px&quot;&gt;&lt;b&gt;内容&lt;/b&gt;&lt;/font&gt;" style="ellipse;whiteSpace=wrap;html=1;align=center;fillColor=default;" vertex="1" parent="1">
          <mxGeometry x="2100.25" y="-127" width="88" height="27" as="geometry" />
        </mxCell>
        <mxCell id="Z8kXA77HU9Zu7usbfkjC-388" value="&lt;font style=&quot;font-size: 24px&quot;&gt;&lt;b&gt;结束时间&lt;/b&gt;&lt;/font&gt;" style="ellipse;whiteSpace=wrap;html=1;align=center;fillColor=default;" vertex="1" parent="1">
          <mxGeometry x="2026.5" y="-267.38" width="134.5" height="30.5" as="geometry" />
        </mxCell>
        <mxCell id="Z8kXA77HU9Zu7usbfkjC-389" value="&lt;font style=&quot;font-size: 24px&quot;&gt;&lt;b&gt;用户id&lt;/b&gt;&lt;/font&gt;" style="ellipse;whiteSpace=wrap;html=1;align=center;fillColor=default;" vertex="1" parent="1">
          <mxGeometry x="2149.5" y="-195" width="87" height="29" as="geometry" />
        </mxCell>
        <mxCell id="Z8kXA77HU9Zu7usbfkjC-390" value="&lt;font style=&quot;font-size: 24px&quot;&gt;&lt;b&gt;状态&lt;/b&gt;&lt;/font&gt;" style="ellipse;whiteSpace=wrap;html=1;align=center;fillColor=default;" vertex="1" parent="1">
          <mxGeometry x="2088.5" y="-231" width="87" height="28" as="geometry" />
        </mxCell>
        <mxCell id="Z8kXA77HU9Zu7usbfkjC-391" value="&lt;font style=&quot;font-size: 24px&quot;&gt;&lt;b&gt;总结&lt;/b&gt;&lt;/font&gt;" style="ellipse;whiteSpace=wrap;html=1;align=center;fillColor=default;" vertex="1" parent="1">
          <mxGeometry x="1935.5" y="-103" width="88" height="29" as="geometry" />
        </mxCell>
        <mxCell id="Z8kXA77HU9Zu7usbfkjC-392" value="" style="endArrow=none;html=1;rounded=0;fontSize=18;exitX=0.588;exitY=0;exitDx=0;exitDy=0;entryX=0.422;entryY=1.062;entryDx=0;entryDy=0;exitPerimeter=0;entryPerimeter=0;" edge="1" parent="1" source="Z8kXA77HU9Zu7usbfkjC-384" target="Z8kXA77HU9Zu7usbfkjC-388">
          <mxGeometry width="50" height="50" relative="1" as="geometry">
            <mxPoint x="2496.5" y="-46.25" as="sourcePoint" />
            <mxPoint x="2546.5" y="-96.25" as="targetPoint" />
          </mxGeometry>
        </mxCell>
        <mxCell id="Z8kXA77HU9Zu7usbfkjC-393" value="" style="endArrow=none;html=1;rounded=0;fontSize=18;entryX=1;entryY=0.5;entryDx=0;entryDy=0;exitX=0;exitY=0.5;exitDx=0;exitDy=0;" edge="1" parent="1" target="Z8kXA77HU9Zu7usbfkjC-384" source="Z8kXA77HU9Zu7usbfkjC-400">
          <mxGeometry width="50" height="50" relative="1" as="geometry">
            <mxPoint x="2173.500000000002" y="-156.5" as="sourcePoint" />
            <mxPoint x="2546.5" y="-96.25" as="targetPoint" />
          </mxGeometry>
        </mxCell>
        <mxCell id="Z8kXA77HU9Zu7usbfkjC-394" value="" style="endArrow=none;html=1;rounded=0;fontSize=18;entryX=1;entryY=0.5;entryDx=0;entryDy=0;" edge="1" parent="1" source="Z8kXA77HU9Zu7usbfkjC-387" target="Z8kXA77HU9Zu7usbfkjC-384">
          <mxGeometry width="50" height="50" relative="1" as="geometry">
            <mxPoint x="2496.5" y="-46.25" as="sourcePoint" />
            <mxPoint x="2546.5" y="-96.25" as="targetPoint" />
          </mxGeometry>
        </mxCell>
        <mxCell id="Z8kXA77HU9Zu7usbfkjC-395" value="" style="endArrow=none;html=1;rounded=0;fontSize=18;entryX=0.5;entryY=1;entryDx=0;entryDy=0;" edge="1" parent="1" source="Z8kXA77HU9Zu7usbfkjC-386" target="Z8kXA77HU9Zu7usbfkjC-384">
          <mxGeometry width="50" height="50" relative="1" as="geometry">
            <mxPoint x="2496.5" y="-46.25" as="sourcePoint" />
            <mxPoint x="2546.5" y="-96.25" as="targetPoint" />
          </mxGeometry>
        </mxCell>
        <mxCell id="Z8kXA77HU9Zu7usbfkjC-396" value="" style="endArrow=none;html=1;rounded=0;fontSize=18;entryX=0.5;entryY=1;entryDx=0;entryDy=0;" edge="1" parent="1" source="Z8kXA77HU9Zu7usbfkjC-391" target="Z8kXA77HU9Zu7usbfkjC-384">
          <mxGeometry width="50" height="50" relative="1" as="geometry">
            <mxPoint x="2496.5" y="-46.25" as="sourcePoint" />
            <mxPoint x="2036.5" y="-156" as="targetPoint" />
          </mxGeometry>
        </mxCell>
        <mxCell id="Z8kXA77HU9Zu7usbfkjC-397" value="" style="endArrow=none;html=1;rounded=0;fontSize=18;exitX=1;exitY=0.5;exitDx=0;exitDy=0;entryX=0;entryY=0.5;entryDx=0;entryDy=0;" edge="1" parent="1" source="Z8kXA77HU9Zu7usbfkjC-384" target="Z8kXA77HU9Zu7usbfkjC-389">
          <mxGeometry width="50" height="50" relative="1" as="geometry">
            <mxPoint x="2496.5" y="-46.25" as="sourcePoint" />
            <mxPoint x="2546.5" y="-96.25" as="targetPoint" />
          </mxGeometry>
        </mxCell>
        <mxCell id="Z8kXA77HU9Zu7usbfkjC-398" value="" style="endArrow=none;html=1;rounded=0;fontSize=18;exitX=0;exitY=0.5;exitDx=0;exitDy=0;entryX=0.75;entryY=0;entryDx=0;entryDy=0;" edge="1" parent="1" source="Z8kXA77HU9Zu7usbfkjC-390" target="Z8kXA77HU9Zu7usbfkjC-384">
          <mxGeometry width="50" height="50" relative="1" as="geometry">
            <mxPoint x="2496.5" y="-46.25" as="sourcePoint" />
            <mxPoint x="1988" y="-181" as="targetPoint" />
          </mxGeometry>
        </mxCell>
        <mxCell id="Z8kXA77HU9Zu7usbfkjC-399" value="" style="endArrow=none;html=1;rounded=0;fontSize=18;entryX=0.5;entryY=0;entryDx=0;entryDy=0;exitX=0.5;exitY=1;exitDx=0;exitDy=0;" edge="1" parent="1" source="Z8kXA77HU9Zu7usbfkjC-385" target="Z8kXA77HU9Zu7usbfkjC-384">
          <mxGeometry width="50" height="50" relative="1" as="geometry">
            <mxPoint x="2496.5" y="-46.25" as="sourcePoint" />
            <mxPoint x="2546.5" y="-96.25" as="targetPoint" />
          </mxGeometry>
        </mxCell>
        <mxCell id="Z8kXA77HU9Zu7usbfkjC-400" value="&lt;font style=&quot;font-size: 24px&quot;&gt;&lt;b&gt;标题&lt;/b&gt;&lt;/font&gt;" style="ellipse;whiteSpace=wrap;html=1;align=center;fillColor=default;" vertex="1" parent="1">
          <mxGeometry x="2144.5" y="-159.5" width="87" height="26" as="geometry" />
        </mxCell>
        <mxCell id="Z8kXA77HU9Zu7usbfkjC-401" value="&lt;font style=&quot;font-size: 24px&quot;&gt;&lt;b&gt;标签&lt;/b&gt;&lt;/font&gt;" style="ellipse;whiteSpace=wrap;html=1;align=center;fillColor=default;" vertex="1" parent="1">
          <mxGeometry x="1848.5" y="-100" width="87" height="26" as="geometry" />
        </mxCell>
        <mxCell id="Z8kXA77HU9Zu7usbfkjC-402" value="" style="endArrow=none;html=1;rounded=0;fontSize=18;entryX=0.5;entryY=1;entryDx=0;entryDy=0;exitX=0.5;exitY=0;exitDx=0;exitDy=0;" edge="1" parent="1" source="Z8kXA77HU9Zu7usbfkjC-401" target="Z8kXA77HU9Zu7usbfkjC-384">
          <mxGeometry width="50" height="50" relative="1" as="geometry">
            <mxPoint x="1526.5" y="-173.5" as="sourcePoint" />
            <mxPoint x="1576.5" y="-223.5" as="targetPoint" />
          </mxGeometry>
        </mxCell>
        <mxCell id="Z8kXA77HU9Zu7usbfkjC-403" value="&lt;font style=&quot;font-size: 24px&quot;&gt;&lt;b&gt;制定&lt;/b&gt;&lt;/font&gt;" style="shape=rhombus;perimeter=rhombusPerimeter;whiteSpace=wrap;html=1;align=center;fontSize=18;fillColor=default;" vertex="1" parent="1">
          <mxGeometry x="1681.5" y="-48.5" width="107" height="51" as="geometry" />
        </mxCell>
        <mxCell id="Z8kXA77HU9Zu7usbfkjC-404" value="" style="endArrow=none;html=1;rounded=0;fontSize=18;exitX=1;exitY=0.5;exitDx=0;exitDy=0;entryX=0;entryY=0.5;entryDx=0;entryDy=0;" edge="1" parent="1" source="Z8kXA77HU9Zu7usbfkjC-403" target="Z8kXA77HU9Zu7usbfkjC-360">
          <mxGeometry width="50" height="50" relative="1" as="geometry">
            <mxPoint x="1656" y="39.5" as="sourcePoint" />
            <mxPoint x="2129" y="10" as="targetPoint" />
          </mxGeometry>
        </mxCell>
        <mxCell id="Z8kXA77HU9Zu7usbfkjC-405" value="&lt;font style=&quot;font-size: 24px ; font-weight: normal&quot;&gt;n&lt;/font&gt;" style="text;strokeColor=none;fillColor=none;html=1;fontSize=24;fontStyle=1;verticalAlign=middle;align=center;" vertex="1" parent="1">
          <mxGeometry x="1859" y="35" width="100" height="40" as="geometry" />
        </mxCell>
        <mxCell id="Z8kXA77HU9Zu7usbfkjC-406" value="&lt;font style=&quot;font-size: 24px ; font-weight: normal&quot;&gt;1&lt;/font&gt;" style="text;strokeColor=none;fillColor=none;html=1;fontSize=24;fontStyle=1;verticalAlign=middle;align=center;" vertex="1" parent="1">
          <mxGeometry x="1580.5" y="-80" width="100" height="40" as="geometry" />
        </mxCell>
        <mxCell id="Z8kXA77HU9Zu7usbfkjC-407" value="" style="endArrow=none;html=1;rounded=0;fontSize=18;entryX=0;entryY=0.5;entryDx=0;entryDy=0;exitX=0.5;exitY=1;exitDx=0;exitDy=0;" edge="1" parent="1" source="Z8kXA77HU9Zu7usbfkjC-153" target="Z8kXA77HU9Zu7usbfkjC-403">
          <mxGeometry width="50" height="50" relative="1" as="geometry">
            <mxPoint x="1795" y="88.5" as="sourcePoint" />
            <mxPoint x="1706" y="-10.5" as="targetPoint" />
          </mxGeometry>
        </mxCell>
        <mxCell id="Z8kXA77HU9Zu7usbfkjC-409" value="&lt;font style=&quot;font-size: 24px ; font-weight: normal&quot;&gt;1&lt;/font&gt;" style="text;strokeColor=none;fillColor=none;html=1;fontSize=24;fontStyle=1;verticalAlign=middle;align=center;" vertex="1" parent="1">
          <mxGeometry x="1587" y="-190" width="100" height="40" as="geometry" />
        </mxCell>
        <mxCell id="Z8kXA77HU9Zu7usbfkjC-410" value="" style="endArrow=none;html=1;rounded=0;fontSize=18;exitX=1;exitY=0.5;exitDx=0;exitDy=0;entryX=0.5;entryY=1;entryDx=0;entryDy=0;" edge="1" parent="1" source="Z8kXA77HU9Zu7usbfkjC-89" target="Z8kXA77HU9Zu7usbfkjC-153">
          <mxGeometry width="50" height="50" relative="1" as="geometry">
            <mxPoint x="1316" y="223" as="sourcePoint" />
            <mxPoint x="1323" y="-34" as="targetPoint" />
          </mxGeometry>
        </mxCell>
        <mxCell id="Z8kXA77HU9Zu7usbfkjC-413" value="" style="endArrow=none;html=1;rounded=0;fontSize=18;exitX=0.5;exitY=0;exitDx=0;exitDy=0;entryX=0.5;entryY=1;entryDx=0;entryDy=0;" edge="1" parent="1" source="Z8kXA77HU9Zu7usbfkjC-218" target="Z8kXA77HU9Zu7usbfkjC-153">
          <mxGeometry width="50" height="50" relative="1" as="geometry">
            <mxPoint x="1316" y="223" as="sourcePoint" />
            <mxPoint x="1366" y="173" as="targetPoint" />
          </mxGeometry>
        </mxCell>
        <mxCell id="Z8kXA77HU9Zu7usbfkjC-414" value="" style="endArrow=none;html=1;rounded=0;fontSize=18;entryX=0.5;entryY=1;entryDx=0;entryDy=0;exitX=0.5;exitY=0;exitDx=0;exitDy=0;" edge="1" parent="1" source="Z8kXA77HU9Zu7usbfkjC-263" target="Z8kXA77HU9Zu7usbfkjC-153">
          <mxGeometry width="50" height="50" relative="1" as="geometry">
            <mxPoint x="1316" y="223" as="sourcePoint" />
            <mxPoint x="1366" y="173" as="targetPoint" />
          </mxGeometry>
        </mxCell>
        <mxCell id="Z8kXA77HU9Zu7usbfkjC-416" value="&lt;font style=&quot;font-size: 24px&quot;&gt;&lt;b&gt;创建时间&lt;/b&gt;&lt;/font&gt;" style="ellipse;whiteSpace=wrap;html=1;align=center;fillColor=default;" vertex="1" parent="1">
          <mxGeometry x="2161.5" y="-444.37" width="101.5" height="33.37" as="geometry" />
        </mxCell>
        <mxCell id="Z8kXA77HU9Zu7usbfkjC-417" value="&lt;font style=&quot;font-size: 24px&quot;&gt;&lt;b&gt;标题&lt;/b&gt;&lt;/font&gt;" style="ellipse;whiteSpace=wrap;html=1;align=center;fillColor=default;" vertex="1" parent="1">
          <mxGeometry x="2205.5" y="-384" width="86" height="29" as="geometry" />
        </mxCell>
        <mxCell id="Z8kXA77HU9Zu7usbfkjC-418" value="&lt;font style=&quot;font-size: 24px&quot;&gt;&lt;b&gt;类型&lt;/b&gt;&lt;/font&gt;" style="ellipse;whiteSpace=wrap;html=1;align=center;fillColor=default;" vertex="1" parent="1">
          <mxGeometry x="2026.5" y="-338.63" width="88" height="27" as="geometry" />
        </mxCell>
        <mxCell id="Z8kXA77HU9Zu7usbfkjC-419" value="&lt;font style=&quot;font-size: 24px&quot;&gt;&lt;b&gt;内容&lt;/b&gt;&lt;/font&gt;" style="ellipse;whiteSpace=wrap;html=1;align=center;fillColor=default;" vertex="1" parent="1">
          <mxGeometry x="2118.5" y="-338.63" width="87" height="26" as="geometry" />
        </mxCell>
        <mxCell id="Z8kXA77HU9Zu7usbfkjC-420" value="&lt;font style=&quot;font-size: 24px&quot;&gt;&lt;b&gt;用户id&lt;/b&gt;&lt;/font&gt;" style="ellipse;whiteSpace=wrap;html=1;align=center;fillColor=default;" vertex="1" parent="1">
          <mxGeometry x="2105" y="-384" width="91" height="29" as="geometry" />
        </mxCell>
        <mxCell id="Z8kXA77HU9Zu7usbfkjC-422" value="&lt;font style=&quot;font-size: 24px&quot;&gt;&lt;b&gt;结束时间&lt;/b&gt;&lt;/font&gt;" style="ellipse;whiteSpace=wrap;html=1;align=center;fillColor=default;" vertex="1" parent="1">
          <mxGeometry x="1907" y="-343" width="106.5" height="33.37" as="geometry" />
        </mxCell>
        <mxCell id="Z8kXA77HU9Zu7usbfkjC-423" value="&lt;font style=&quot;font-size: 24px&quot;&gt;&lt;b&gt;状态&lt;/b&gt;&lt;/font&gt;" style="ellipse;whiteSpace=wrap;html=1;align=center;fillColor=default;" vertex="1" parent="1">
          <mxGeometry x="1980.5" y="-308.13" width="88" height="29" as="geometry" />
        </mxCell>
        <mxCell id="Z8kXA77HU9Zu7usbfkjC-424" value="" style="endArrow=none;html=1;rounded=0;fontSize=18;exitX=0.5;exitY=1;exitDx=0;exitDy=0;" edge="1" parent="1" source="Z8kXA77HU9Zu7usbfkjC-415" target="Z8kXA77HU9Zu7usbfkjC-420">
          <mxGeometry width="50" height="50" relative="1" as="geometry">
            <mxPoint x="2446.5" y="-365.88" as="sourcePoint" />
            <mxPoint x="2496.5" y="-415.88" as="targetPoint" />
          </mxGeometry>
        </mxCell>
        <mxCell id="Z8kXA77HU9Zu7usbfkjC-425" value="" style="endArrow=none;html=1;rounded=0;fontSize=18;entryX=0.5;entryY=1;entryDx=0;entryDy=0;" edge="1" parent="1" source="Z8kXA77HU9Zu7usbfkjC-419" target="Z8kXA77HU9Zu7usbfkjC-415">
          <mxGeometry width="50" height="50" relative="1" as="geometry">
            <mxPoint x="2446.5" y="-365.88" as="sourcePoint" />
            <mxPoint x="2496.5" y="-415.88" as="targetPoint" />
          </mxGeometry>
        </mxCell>
        <mxCell id="Z8kXA77HU9Zu7usbfkjC-426" value="" style="endArrow=none;html=1;rounded=0;fontSize=18;entryX=0.5;entryY=1;entryDx=0;entryDy=0;" edge="1" parent="1" source="Z8kXA77HU9Zu7usbfkjC-418" target="Z8kXA77HU9Zu7usbfkjC-415">
          <mxGeometry width="50" height="50" relative="1" as="geometry">
            <mxPoint x="2446.5" y="-365.88" as="sourcePoint" />
            <mxPoint x="2496.5" y="-415.88" as="targetPoint" />
          </mxGeometry>
        </mxCell>
        <mxCell id="Z8kXA77HU9Zu7usbfkjC-427" value="" style="endArrow=none;html=1;rounded=0;fontSize=18;startArrow=none;" edge="1" parent="1" source="Z8kXA77HU9Zu7usbfkjC-415">
          <mxGeometry width="50" height="50" relative="1" as="geometry">
            <mxPoint x="2446.5" y="-365.88" as="sourcePoint" />
            <mxPoint x="2001.5" y="-443.13" as="targetPoint" />
          </mxGeometry>
        </mxCell>
        <mxCell id="Z8kXA77HU9Zu7usbfkjC-428" value="" style="endArrow=none;html=1;rounded=0;fontSize=18;entryX=0.5;entryY=1;entryDx=0;entryDy=0;" edge="1" parent="1" source="Z8kXA77HU9Zu7usbfkjC-423" target="Z8kXA77HU9Zu7usbfkjC-415">
          <mxGeometry width="50" height="50" relative="1" as="geometry">
            <mxPoint x="2446.5" y="-365.88" as="sourcePoint" />
            <mxPoint x="2496.5" y="-415.88" as="targetPoint" />
          </mxGeometry>
        </mxCell>
        <mxCell id="Z8kXA77HU9Zu7usbfkjC-430" value="" style="endArrow=none;html=1;rounded=0;fontSize=18;entryX=0.5;entryY=1;entryDx=0;entryDy=0;exitX=0.5;exitY=0;exitDx=0;exitDy=0;" edge="1" parent="1" source="Z8kXA77HU9Zu7usbfkjC-422" target="Z8kXA77HU9Zu7usbfkjC-415">
          <mxGeometry width="50" height="50" relative="1" as="geometry">
            <mxPoint x="2446.5" y="-365.88" as="sourcePoint" />
            <mxPoint x="2496.5" y="-415.88" as="targetPoint" />
          </mxGeometry>
        </mxCell>
        <mxCell id="Z8kXA77HU9Zu7usbfkjC-431" value="" style="endArrow=none;html=1;rounded=0;fontSize=18;exitX=0;exitY=0.5;exitDx=0;exitDy=0;entryX=1;entryY=0.75;entryDx=0;entryDy=0;" edge="1" parent="1" source="Z8kXA77HU9Zu7usbfkjC-416" target="Z8kXA77HU9Zu7usbfkjC-415">
          <mxGeometry width="50" height="50" relative="1" as="geometry">
            <mxPoint x="2183.499999999999" y="-441.1299999999992" as="sourcePoint" />
            <mxPoint x="2048.5" y="-462.13" as="targetPoint" />
          </mxGeometry>
        </mxCell>
        <mxCell id="Z8kXA77HU9Zu7usbfkjC-432" value="&lt;font style=&quot;font-size: 24px&quot;&gt;1&lt;/font&gt;" style="text;strokeColor=none;fillColor=none;html=1;fontSize=24;fontStyle=1;verticalAlign=middle;align=center;" vertex="1" parent="1">
          <mxGeometry x="797" y="49" width="100" height="40" as="geometry" />
        </mxCell>
        <mxCell id="Z8kXA77HU9Zu7usbfkjC-433" value="&lt;font style=&quot;font-size: 24px&quot;&gt;&lt;b&gt;安排&lt;/b&gt;&lt;/font&gt;" style="shape=rhombus;perimeter=rhombusPerimeter;whiteSpace=wrap;html=1;align=center;fontSize=18;fillColor=default;" vertex="1" parent="1">
          <mxGeometry x="1830.5" y="-376.13" width="107" height="51" as="geometry" />
        </mxCell>
        <mxCell id="Z8kXA77HU9Zu7usbfkjC-434" value="&lt;font style=&quot;font-size: 24px&quot;&gt;&lt;b&gt;文件&lt;/b&gt;&lt;/font&gt;" style="whiteSpace=wrap;html=1;align=center;" vertex="1" parent="1">
          <mxGeometry x="671" y="-417" width="96" height="33" as="geometry" />
        </mxCell>
        <mxCell id="Z8kXA77HU9Zu7usbfkjC-435" value="&lt;font style=&quot;font-size: 24px&quot;&gt;&lt;b&gt;文件名&lt;/b&gt;&lt;/font&gt;" style="ellipse;whiteSpace=wrap;html=1;align=center;fillColor=default;" vertex="1" parent="1">
          <mxGeometry x="482" y="-437" width="90" height="35.37" as="geometry" />
        </mxCell>
        <mxCell id="Z8kXA77HU9Zu7usbfkjC-436" value="&lt;font style=&quot;font-size: 24px&quot;&gt;&lt;b&gt;用户id&lt;/b&gt;&lt;/font&gt;" style="ellipse;whiteSpace=wrap;html=1;align=center;fillColor=default;" vertex="1" parent="1">
          <mxGeometry x="665" y="-300" width="89" height="28.87" as="geometry" />
        </mxCell>
        <mxCell id="Z8kXA77HU9Zu7usbfkjC-437" value="&lt;font style=&quot;font-size: 24px&quot;&gt;&lt;b&gt;上传时间&lt;/b&gt;&lt;/font&gt;" style="ellipse;whiteSpace=wrap;html=1;align=center;fillColor=default;" vertex="1" parent="1">
          <mxGeometry x="730" y="-326" width="113" height="24" as="geometry" />
        </mxCell>
        <mxCell id="Z8kXA77HU9Zu7usbfkjC-439" value="&lt;font style=&quot;font-size: 24px&quot;&gt;&lt;b&gt;文件类型&lt;/b&gt;&lt;/font&gt;" style="ellipse;whiteSpace=wrap;html=1;align=center;fillColor=default;" vertex="1" parent="1">
          <mxGeometry x="531" y="-360" width="106" height="34" as="geometry" />
        </mxCell>
        <mxCell id="Z8kXA77HU9Zu7usbfkjC-440" value="&lt;font style=&quot;font-size: 24px&quot;&gt;&lt;b&gt;后缀名&lt;/b&gt;&lt;/font&gt;" style="ellipse;whiteSpace=wrap;html=1;align=center;fillColor=default;" vertex="1" parent="1">
          <mxGeometry x="519" y="-395.63" width="87" height="28" as="geometry" />
        </mxCell>
        <mxCell id="Z8kXA77HU9Zu7usbfkjC-441" value="&lt;font style=&quot;font-size: 24px&quot;&gt;&lt;b&gt;大小&lt;/b&gt;&lt;/font&gt;" style="ellipse;whiteSpace=wrap;html=1;align=center;fillColor=default;" vertex="1" parent="1">
          <mxGeometry x="594" y="-323.75" width="88" height="29.5" as="geometry" />
        </mxCell>
        <mxCell id="Z8kXA77HU9Zu7usbfkjC-443" value="" style="endArrow=none;html=1;rounded=0;fontSize=18;entryX=0.5;entryY=1;entryDx=0;entryDy=0;exitX=1;exitY=0;exitDx=0;exitDy=0;" edge="1" parent="1" source="Z8kXA77HU9Zu7usbfkjC-437" target="Z8kXA77HU9Zu7usbfkjC-434">
          <mxGeometry width="50" height="50" relative="1" as="geometry">
            <mxPoint x="1238" y="-281.5" as="sourcePoint" />
            <mxPoint x="1288" y="-331.5" as="targetPoint" />
          </mxGeometry>
        </mxCell>
        <mxCell id="Z8kXA77HU9Zu7usbfkjC-444" value="" style="endArrow=none;html=1;rounded=0;fontSize=18;" edge="1" parent="1" source="Z8kXA77HU9Zu7usbfkjC-436">
          <mxGeometry width="50" height="50" relative="1" as="geometry">
            <mxPoint x="1238" y="-281.5" as="sourcePoint" />
            <mxPoint x="719" y="-382.5" as="targetPoint" />
          </mxGeometry>
        </mxCell>
        <mxCell id="Z8kXA77HU9Zu7usbfkjC-445" value="" style="endArrow=none;html=1;rounded=0;fontSize=18;entryX=0.5;entryY=1;entryDx=0;entryDy=0;exitX=0.5;exitY=0;exitDx=0;exitDy=0;" edge="1" parent="1" source="Z8kXA77HU9Zu7usbfkjC-441" target="Z8kXA77HU9Zu7usbfkjC-434">
          <mxGeometry width="50" height="50" relative="1" as="geometry">
            <mxPoint x="1238" y="-281.5" as="sourcePoint" />
            <mxPoint x="1288" y="-331.5" as="targetPoint" />
          </mxGeometry>
        </mxCell>
        <mxCell id="Z8kXA77HU9Zu7usbfkjC-446" value="" style="endArrow=none;html=1;rounded=0;fontSize=18;exitX=0;exitY=0.5;exitDx=0;exitDy=0;entryX=1;entryY=0;entryDx=0;entryDy=0;" edge="1" parent="1" source="Z8kXA77HU9Zu7usbfkjC-434" target="Z8kXA77HU9Zu7usbfkjC-439">
          <mxGeometry width="50" height="50" relative="1" as="geometry">
            <mxPoint x="1238" y="-281.5" as="sourcePoint" />
            <mxPoint x="1288" y="-331.5" as="targetPoint" />
          </mxGeometry>
        </mxCell>
        <mxCell id="Z8kXA77HU9Zu7usbfkjC-447" value="" style="endArrow=none;html=1;rounded=0;fontSize=18;entryX=0;entryY=0.5;entryDx=0;entryDy=0;exitX=1;exitY=0.5;exitDx=0;exitDy=0;" edge="1" parent="1" source="Z8kXA77HU9Zu7usbfkjC-440" target="Z8kXA77HU9Zu7usbfkjC-434">
          <mxGeometry width="50" height="50" relative="1" as="geometry">
            <mxPoint x="1238" y="-281.5" as="sourcePoint" />
            <mxPoint x="1288" y="-331.5" as="targetPoint" />
          </mxGeometry>
        </mxCell>
        <mxCell id="Z8kXA77HU9Zu7usbfkjC-448" value="" style="endArrow=none;html=1;rounded=0;fontSize=18;entryX=0;entryY=0.5;entryDx=0;entryDy=0;exitX=1;exitY=0;exitDx=0;exitDy=0;" edge="1" parent="1" source="Z8kXA77HU9Zu7usbfkjC-435" target="Z8kXA77HU9Zu7usbfkjC-434">
          <mxGeometry width="50" height="50" relative="1" as="geometry">
            <mxPoint x="576" y="-412.1299999999992" as="sourcePoint" />
            <mxPoint x="1288" y="-331.5" as="targetPoint" />
          </mxGeometry>
        </mxCell>
        <mxCell id="Z8kXA77HU9Zu7usbfkjC-449" value="&lt;font style=&quot;font-size: 24px&quot;&gt;&lt;b&gt;上传&lt;/b&gt;&lt;/font&gt;" style="shape=rhombus;perimeter=rhombusPerimeter;whiteSpace=wrap;html=1;align=center;fontSize=18;fillColor=default;" vertex="1" parent="1">
          <mxGeometry x="853" y="-372.5" width="107" height="51" as="geometry" />
        </mxCell>
        <mxCell id="Z8kXA77HU9Zu7usbfkjC-450" value="" style="endArrow=none;html=1;rounded=0;fontSize=18;entryX=0;entryY=0.5;entryDx=0;entryDy=0;exitX=1;exitY=0.5;exitDx=0;exitDy=0;" edge="1" parent="1" source="Z8kXA77HU9Zu7usbfkjC-434" target="Z8kXA77HU9Zu7usbfkjC-449">
          <mxGeometry width="50" height="50" relative="1" as="geometry">
            <mxPoint x="774" y="-242.5" as="sourcePoint" />
            <mxPoint x="824" y="-292.5" as="targetPoint" />
          </mxGeometry>
        </mxCell>
        <mxCell id="Z8kXA77HU9Zu7usbfkjC-451" value="&lt;font style=&quot;font-size: 24px&quot;&gt;n&lt;/font&gt;" style="text;strokeColor=none;fillColor=none;html=1;fontSize=24;fontStyle=1;verticalAlign=middle;align=center;" vertex="1" parent="1">
          <mxGeometry x="773" y="-405" width="100" height="40" as="geometry" />
        </mxCell>
        <mxCell id="Z8kXA77HU9Zu7usbfkjC-452" value="&lt;font style=&quot;font-size: 24px&quot;&gt;&lt;b&gt;属于&lt;/b&gt;&lt;/font&gt;" style="shape=rhombus;perimeter=rhombusPerimeter;whiteSpace=wrap;html=1;align=center;fontSize=18;fillColor=default;" vertex="1" parent="1">
          <mxGeometry x="1690" y="89" width="107" height="51" as="geometry" />
        </mxCell>
        <mxCell id="Z8kXA77HU9Zu7usbfkjC-453" value="" style="endArrow=none;html=1;rounded=0;fontSize=18;entryX=0;entryY=0.5;entryDx=0;entryDy=0;exitX=0.5;exitY=0;exitDx=0;exitDy=0;" edge="1" parent="1" source="Z8kXA77HU9Zu7usbfkjC-452" target="Z8kXA77HU9Zu7usbfkjC-360">
          <mxGeometry width="50" height="50" relative="1" as="geometry">
            <mxPoint x="1567" y="230" as="sourcePoint" />
            <mxPoint x="1617" y="180" as="targetPoint" />
          </mxGeometry>
        </mxCell>
        <mxCell id="Z8kXA77HU9Zu7usbfkjC-454" value="" style="endArrow=none;html=1;rounded=0;fontSize=18;exitX=0;exitY=0.5;exitDx=0;exitDy=0;entryX=1;entryY=0.5;entryDx=0;entryDy=0;" edge="1" parent="1" source="Z8kXA77HU9Zu7usbfkjC-239" target="Z8kXA77HU9Zu7usbfkjC-452">
          <mxGeometry width="50" height="50" relative="1" as="geometry">
            <mxPoint x="2406" y="271.5" as="sourcePoint" />
            <mxPoint x="2050" y="242" as="targetPoint" />
          </mxGeometry>
        </mxCell>
        <mxCell id="Z8kXA77HU9Zu7usbfkjC-455" value="&lt;font style=&quot;font-size: 24px&quot;&gt;n&lt;/font&gt;" style="text;strokeColor=none;fillColor=none;html=1;fontSize=24;fontStyle=1;verticalAlign=middle;align=center;" vertex="1" parent="1">
          <mxGeometry x="1804" y="125" width="100" height="40" as="geometry" />
        </mxCell>
        <mxCell id="Z8kXA77HU9Zu7usbfkjC-456" value="&lt;font style=&quot;font-size: 24px&quot;&gt;1&lt;/font&gt;" style="text;strokeColor=none;fillColor=none;html=1;fontSize=24;fontStyle=1;verticalAlign=middle;align=center;" vertex="1" parent="1">
          <mxGeometry x="1797" y="68" width="100" height="40" as="geometry" />
        </mxCell>
        <mxCell id="Z8kXA77HU9Zu7usbfkjC-457" value="&lt;font style=&quot;font-size: 24px&quot;&gt;&lt;b&gt;管理&lt;/b&gt;&lt;/font&gt;" style="shape=rhombus;perimeter=rhombusPerimeter;whiteSpace=wrap;html=1;align=center;fontSize=18;fillColor=default;" vertex="1" parent="1">
          <mxGeometry x="1305" y="89" width="120" height="60" as="geometry" />
        </mxCell>
        <mxCell id="Z8kXA77HU9Zu7usbfkjC-458" value="" style="endArrow=none;html=1;rounded=0;fontSize=18;entryX=0.5;entryY=1;entryDx=0;entryDy=0;exitX=0.5;exitY=0;exitDx=0;exitDy=0;" edge="1" parent="1" source="Z8kXA77HU9Zu7usbfkjC-90" target="Z8kXA77HU9Zu7usbfkjC-457">
          <mxGeometry width="50" height="50" relative="1" as="geometry">
            <mxPoint x="1422" y="520" as="sourcePoint" />
            <mxPoint x="1472" y="470" as="targetPoint" />
          </mxGeometry>
        </mxCell>
        <mxCell id="Z8kXA77HU9Zu7usbfkjC-459" value="" style="endArrow=none;html=1;rounded=0;fontSize=18;entryX=0.5;entryY=1;entryDx=0;entryDy=0;exitX=0.5;exitY=0;exitDx=0;exitDy=0;" edge="1" parent="1" source="Z8kXA77HU9Zu7usbfkjC-457" target="Z8kXA77HU9Zu7usbfkjC-153">
          <mxGeometry width="50" height="50" relative="1" as="geometry">
            <mxPoint x="1355.5" y="239.5" as="sourcePoint" />
            <mxPoint x="1374.5" y="-115.5" as="targetPoint" />
          </mxGeometry>
        </mxCell>
        <mxCell id="Z8kXA77HU9Zu7usbfkjC-460" value="&lt;font style=&quot;font-size: 24px&quot;&gt;n&lt;/font&gt;" style="text;strokeColor=none;fillColor=none;html=1;fontSize=24;fontStyle=1;verticalAlign=middle;align=center;" vertex="1" parent="1">
          <mxGeometry x="1346" y="38" width="100" height="40" as="geometry" />
        </mxCell>
        <mxCell id="Z8kXA77HU9Zu7usbfkjC-461" value="" style="endArrow=none;html=1;rounded=0;fontSize=18;entryX=0;entryY=0.5;entryDx=0;entryDy=0;exitX=0.5;exitY=1;exitDx=0;exitDy=0;" edge="1" parent="1" source="Z8kXA77HU9Zu7usbfkjC-153" target="Z8kXA77HU9Zu7usbfkjC-308">
          <mxGeometry width="50" height="50" relative="1" as="geometry">
            <mxPoint x="1387" y="553" as="sourcePoint" />
            <mxPoint x="1437" y="503" as="targetPoint" />
          </mxGeometry>
        </mxCell>
        <mxCell id="Z8kXA77HU9Zu7usbfkjC-463" value="&lt;font style=&quot;font-size: 24px ; font-weight: normal&quot;&gt;1&lt;/font&gt;" style="text;strokeColor=none;fillColor=none;html=1;fontSize=24;fontStyle=1;verticalAlign=middle;align=center;" vertex="1" parent="1">
          <mxGeometry x="1433" y="51" width="100" height="40" as="geometry" />
        </mxCell>
        <mxCell id="Z8kXA77HU9Zu7usbfkjC-464" value="&lt;font style=&quot;font-size: 24px&quot;&gt;n&lt;/font&gt;" style="text;strokeColor=none;fillColor=none;html=1;fontSize=24;fontStyle=1;verticalAlign=middle;align=center;" vertex="1" parent="1">
          <mxGeometry x="1717.5" y="323" width="100" height="40" as="geometry" />
        </mxCell>
        <mxCell id="Z8kXA77HU9Zu7usbfkjC-465" value="" style="endArrow=none;html=1;rounded=0;fontSize=18;entryX=0.5;entryY=0;entryDx=0;entryDy=0;exitX=0.5;exitY=1;exitDx=0;exitDy=0;" edge="1" parent="1" source="Z8kXA77HU9Zu7usbfkjC-153" target="Z8kXA77HU9Zu7usbfkjC-304">
          <mxGeometry width="50" height="50" relative="1" as="geometry">
            <mxPoint x="1371.5" y="-168.5" as="sourcePoint" />
            <mxPoint x="1902" y="593.5" as="targetPoint" />
            <Array as="points" />
          </mxGeometry>
        </mxCell>
        <mxCell id="Z8kXA77HU9Zu7usbfkjC-467" value="&lt;font style=&quot;font-size: 24px ; font-weight: normal&quot;&gt;1&lt;/font&gt;" style="text;strokeColor=none;fillColor=none;html=1;fontSize=24;fontStyle=1;verticalAlign=middle;align=center;" vertex="1" parent="1">
          <mxGeometry x="1715" y="229.75" width="100" height="40" as="geometry" />
        </mxCell>
        <mxCell id="Z8kXA77HU9Zu7usbfkjC-468" value="&lt;font style=&quot;font-size: 24px ; font-weight: normal&quot;&gt;1&lt;/font&gt;" style="text;strokeColor=none;fillColor=none;html=1;fontSize=24;fontStyle=1;verticalAlign=middle;align=center;" vertex="1" parent="1">
          <mxGeometry x="1197" y="-46" width="100" height="40" as="geometry" />
        </mxCell>
        <mxCell id="Z8kXA77HU9Zu7usbfkjC-469" value="" style="endArrow=none;html=1;rounded=0;fontSize=18;exitX=0;exitY=0.5;exitDx=0;exitDy=0;entryX=1;entryY=0.5;entryDx=0;entryDy=0;" edge="1" parent="1" source="Z8kXA77HU9Zu7usbfkjC-153" target="Z8kXA77HU9Zu7usbfkjC-449">
          <mxGeometry width="50" height="50" relative="1" as="geometry">
            <mxPoint x="1076" y="-187" as="sourcePoint" />
            <mxPoint x="823" y="-348" as="targetPoint" />
            <Array as="points">
              <mxPoint x="1046" y="-206" />
            </Array>
          </mxGeometry>
        </mxCell>
        <mxCell id="Z8kXA77HU9Zu7usbfkjC-470" value="" style="endArrow=none;html=1;rounded=0;fontSize=18;entryX=0;entryY=0.5;entryDx=0;entryDy=0;exitX=0.5;exitY=0;exitDx=0;exitDy=0;" edge="1" parent="1" source="Z8kXA77HU9Zu7usbfkjC-433" target="Z8kXA77HU9Zu7usbfkjC-415">
          <mxGeometry width="50" height="50" relative="1" as="geometry">
            <mxPoint x="1285.5" y="-284.13" as="sourcePoint" />
            <mxPoint x="1335.5" y="-334.13" as="targetPoint" />
          </mxGeometry>
        </mxCell>
        <mxCell id="Z8kXA77HU9Zu7usbfkjC-471" value="" style="endArrow=none;html=1;rounded=0;fontSize=18;entryX=0.5;entryY=1;entryDx=0;entryDy=0;exitX=1;exitY=0.5;exitDx=0;exitDy=0;" edge="1" parent="1" source="Z8kXA77HU9Zu7usbfkjC-153" target="Z8kXA77HU9Zu7usbfkjC-433">
          <mxGeometry width="50" height="50" relative="1" as="geometry">
            <mxPoint x="1758" y="-189" as="sourcePoint" />
            <mxPoint x="1372" y="-352" as="targetPoint" />
            <Array as="points">
              <mxPoint x="1791" y="-197" />
            </Array>
          </mxGeometry>
        </mxCell>
        <mxCell id="Z8kXA77HU9Zu7usbfkjC-472" value="&lt;font style=&quot;font-size: 24px&quot;&gt;1&lt;/font&gt;" style="text;strokeColor=none;fillColor=none;html=1;fontSize=24;fontStyle=1;verticalAlign=middle;align=center;" vertex="1" parent="1">
          <mxGeometry x="889" y="-297.5" width="100" height="40" as="geometry" />
        </mxCell>
        <mxCell id="Z8kXA77HU9Zu7usbfkjC-473" value="&lt;font style=&quot;font-size: 24px&quot;&gt;1&lt;/font&gt;" style="text;strokeColor=none;fillColor=none;html=1;fontSize=24;fontStyle=1;verticalAlign=middle;align=center;" vertex="1" parent="1">
          <mxGeometry x="1743.5" y="-251.5" width="100" height="40" as="geometry" />
        </mxCell>
        <mxCell id="Z8kXA77HU9Zu7usbfkjC-474" value="&lt;font style=&quot;font-size: 24px&quot;&gt;n&lt;/font&gt;" style="text;strokeColor=none;fillColor=none;html=1;fontSize=24;fontStyle=1;verticalAlign=middle;align=center;" vertex="1" parent="1">
          <mxGeometry x="1857" y="517" width="100" height="40" as="geometry" />
        </mxCell>
        <mxCell id="Z8kXA77HU9Zu7usbfkjC-475" value="&lt;font style=&quot;font-size: 24px&quot;&gt;n&lt;/font&gt;" style="text;strokeColor=none;fillColor=none;html=1;fontSize=24;fontStyle=1;verticalAlign=middle;align=center;" vertex="1" parent="1">
          <mxGeometry x="1865.5" y="-461.13" width="100" height="40" as="geometry" />
        </mxCell>
        <mxCell id="Z8kXA77HU9Zu7usbfkjC-415" value="&lt;font style=&quot;font-size: 24px&quot;&gt;&lt;b&gt;日程安排&lt;/b&gt;&lt;/font&gt;" style="whiteSpace=wrap;html=1;align=center;" vertex="1" parent="1">
          <mxGeometry x="1972" y="-456" width="108.5" height="39" as="geometry" />
        </mxCell>
        <mxCell id="Z8kXA77HU9Zu7usbfkjC-489" value="" style="endArrow=none;html=1;rounded=0;fontSize=18;" edge="1" parent="1" source="Z8kXA77HU9Zu7usbfkjC-417" target="Z8kXA77HU9Zu7usbfkjC-415">
          <mxGeometry width="50" height="50" relative="1" as="geometry">
            <mxPoint x="2134.6773589407912" y="-421.36429272483656" as="sourcePoint" />
            <mxPoint x="2001.5" y="-443.1299999999992" as="targetPoint" />
          </mxGeometry>
        </mxCell>
      </root>
    </mxGraphModel>
  </diagram>
</mxfile>
